<svg width="537" height="435" viewBox="0 0 537 435" fill="none" xmlns="http://www.w3.org/2000/svg">
    <rect width="537" height="435" fill=""/>
    <g clip-path="url(#clip0_577_6864)">
        <mask id="mask0_577_6864" style="mask-type:alpha" maskUnits="userSpaceOnUse" x="0" y="-395" width="495" height="830">
            <rect y="-395" width="495" height="830" fill="#F5F9FB"/>
        </mask>
        <g mask="url(#mask0_577_6864)">
            <path fill-rule="evenodd" clip-rule="evenodd" d="M501.183 383.498C523.63 353.324 537 315.598 537 274.641C537 175.67 459.085 95.429 362.982 95.429C355.167 95.429 347.492 96.0105 339.957 97.0443L339.95 97.0515C333.739 86.8284 328.824 79.1755 325.812 75.2341C291.815 30.6375 238.995 2 179.658 2C91.76 2 18.1459 64.9393 -1.09418 149.437C-1.09418 149.323 -1.19875 149.186 -1.17086 149.079C-2.55113 149.035 -3.91745 148.949 -5.30469 148.949C-86.8658 148.949 -153 217.058 -153 301.06C-153 385.049 -86.8658 453.157 -5.30469 453.157C49.0206 453.157 122.753 453.818 173.823 453.818C204.279 453.818 220.78 453.451 346.503 453.818C347.541 453.825 348.524 453.789 349.549 453.789C365.882 454.571 400.995 453.947 434.372 438.124C439.726 435.525 472.246 421.519 501.197 383.52C501.19 383.513 501.19 383.505 501.183 383.498Z" fill="#FEBF40"/>
            <path fill-rule="evenodd" clip-rule="evenodd" d="M501.252 382.498C523.655 352.324 537 314.598 537 273.641C537 174.67 459.234 94.429 363.316 94.429C355.517 94.429 347.857 95.0105 340.335 96.0443L340.328 96.0515C334.129 85.8284 329.231 78.1755 326.218 74.2341C292.286 29.6375 239.568 1 180.345 1C78.0046 1 -5 86.6181 -5 192.244C-5 297.878 72.1532 452.818 174.521 452.818C204.919 452.818 221.388 452.451 346.869 452.818C347.905 452.825 348.886 452.789 349.909 452.789C366.211 453.571 401.256 452.947 434.57 437.124C439.913 434.525 472.37 420.519 501.266 382.52C501.259 382.513 501.259 382.505 501.252 382.498Z" fill="#87CEF2"/>
        </g>
        <path fill-rule="evenodd" clip-rule="evenodd" d="M495.041 371.195C466.768 319.374 347.891 101.992 326.032 73.4325C291.994 28.9022 239.105 0.314453 179.698 0.314453C77.0476 0.314453 -6.22168 85.798 -6.22168 191.267C-6.22168 296.744 71.171 451.453 173.856 451.453C204.356 451.453 220.869 451.094 346.739 451.453C347.779 451.46 348.763 451.424 349.789 451.424C366.141 452.213 401.303 451.589 434.712 435.79C440.079 433.188 472.245 419.723 501.223 381.781L495.041 371.195Z" fill="#2261AE"/>
        <path fill-rule="evenodd" clip-rule="evenodd" d="M495.041 371.978C466.768 320.158 347.891 102.775 326.032 74.2157C291.994 29.6854 239.105 1.09766 179.698 1.09766C77.0476 1.09766 -6.22168 86.5812 -6.22168 192.05C-6.22168 297.527 71.171 452.236 173.856 452.236C204.356 452.236 220.869 451.878 346.739 452.236C347.779 452.243 348.763 452.207 349.789 452.207C366.141 452.996 401.303 452.372 434.712 436.573C440.079 433.971 472.245 420.114 501.223 382.172L495.041 371.978Z" fill="#2261AE"/>
        <path fill-rule="evenodd" clip-rule="evenodd" d="M538.595 449.828C515.347 407.2 417.599 228.379 399.626 204.886C371.638 168.255 328.15 144.738 279.302 144.738C194.897 144.738 126.428 215.058 126.428 301.818C126.428 388.583 190.065 515.849 274.499 515.849C299.577 515.849 313.155 515.554 416.653 515.849C417.508 515.854 418.317 515.825 419.16 515.825C432.606 516.474 461.518 515.961 488.989 502.964C493.402 500.823 520.173 489.319 544 458.107L538.595 449.828Z" fill="#2261AE"/>
    </g>
    <defs>
        <clipPath id="clip0_577_6864">
            <rect width="531" height="435" fill="white"/>
        </clipPath>
    </defs>
</svg>
