<svg width="140" height="32" viewBox="0 0 140 32" fill="none" xmlns="http://www.w3.org/2000/svg">
<g clip-path="url(#clip0_65_1726)">
<path fill-rule="evenodd" clip-rule="evenodd" d="M78.0505 17.2368C79.5515 17.2368 80.6917 17.7422 81.4739 18.7565V17.3953H84.3233V26.243C84.3233 28.1909 83.8281 29.6411 82.8402 30.5904C81.8523 31.5367 80.4098 32.0111 78.5126 32.0111C77.5123 32.0111 76.562 31.8862 75.6656 31.6358C74.7667 31.3854 74.0222 31.0227 73.4335 30.5488C73.5527 30.3294 74.5075 28.5592 74.6272 28.3372C75.0611 28.7075 75.6122 28.9996 76.28 29.216C76.9483 29.4349 77.6137 29.5415 78.2816 29.5415C79.3204 29.5415 80.0872 29.3023 80.5799 28.8223C81.0751 28.3398 81.3215 27.6119 81.3215 26.6367V26.1831C80.5394 27.0674 79.4471 27.5078 78.0505 27.5078C77.1007 27.5078 76.232 27.2939 75.4425 26.8668C74.6549 26.436 74.0301 25.8336 73.5681 25.0565C73.1055 24.2824 72.8745 23.3854 72.8745 22.371C72.8745 21.3567 73.1055 20.4617 73.5681 19.685C74.0301 18.9079 74.6549 18.3055 75.4425 17.8778C76.232 17.4501 77.1007 17.2368 78.0505 17.2368ZM58.9468 17.2338C59.9095 17.2338 60.7856 17.4609 61.5756 17.917C62.3627 18.3706 62.9825 19.0096 63.4292 19.8309C63.8789 20.6553 64.105 21.6123 64.105 22.7074C64.105 23.7994 63.8789 24.7569 63.4292 25.5808C62.9825 26.4046 62.3627 27.0411 61.5756 27.4977C60.7856 27.9513 59.9095 28.1783 58.9468 28.1783C57.6264 28.1783 56.5876 27.7507 55.8307 26.8923V31.8523H52.8288V17.3903H55.6961V18.6159C56.4401 17.6956 57.5245 17.2338 58.9468 17.2338ZM123.112 17.2338C124.1 17.2338 124.997 17.4476 125.804 17.8753C126.615 18.3055 127.257 18.9237 127.74 19.7349C128.22 20.5425 128.461 21.5025 128.461 22.6083C127.694 22.7596 121.568 23.9772 120.803 24.1285C121.022 24.6552 121.365 25.0514 121.832 25.3151C122.299 25.5782 122.874 25.7087 123.555 25.7087C124.093 25.7087 124.57 25.6279 124.989 25.4634C125.406 25.2968 125.792 25.0387 126.152 24.6812C126.312 24.861 127.59 26.2822 127.75 26.4599C126.775 27.6043 125.35 28.1783 123.478 28.1783C122.31 28.1783 121.276 27.9462 120.38 27.4794C119.481 27.01 118.79 26.3604 118.302 25.5314C117.815 24.702 117.571 23.7608 117.571 22.7073C117.571 21.6665 117.812 20.7284 118.292 19.8908C118.772 19.0568 119.432 18.402 120.273 17.9352C121.114 17.4685 122.061 17.2338 123.112 17.2338ZM115.656 13.3618V28.0219H112.788V26.7963C112.044 27.7192 110.965 28.1783 109.556 28.1783C108.58 28.1783 107.699 27.9538 106.909 27.5079C106.122 27.0594 105.502 26.4209 105.052 25.5914C104.603 24.762 104.379 23.7994 104.379 22.7074C104.379 21.6148 104.606 20.6523 105.052 19.8233C105.502 18.9938 106.122 18.3554 106.909 17.9069C107.699 17.4578 108.58 17.2338 109.556 17.2338C110.876 17.2338 111.91 17.6641 112.654 18.5194V13.3618H115.656ZM101.294 24.3449C101.819 24.3449 102.261 24.5222 102.622 24.8691C102.98 25.218 103.161 25.6777 103.161 26.2431C103.161 26.7962 102.98 27.2574 102.622 27.6257C102.261 27.9954 101.819 28.1783 101.294 28.1783C100.768 28.1783 100.323 27.9954 99.9652 27.6257C99.6076 27.2574 99.427 26.7962 99.427 26.2431C99.427 25.6777 99.6076 25.218 99.9652 24.8691C100.323 24.5222 100.768 24.3449 101.294 24.3449ZM69.1056 13.3614V24.3262C69.1056 24.7752 69.2199 25.1196 69.4435 25.3644C69.6671 25.6072 69.9842 25.7296 70.3958 25.7296C70.5506 25.7296 70.7055 25.7088 70.8682 25.6697C71.028 25.6306 71.1527 25.5833 71.2412 25.531C71.2566 25.7713 71.3634 27.6827 71.3763 27.9224C70.8757 28.092 70.3577 28.1779 69.8195 28.1779C68.651 28.1779 67.7393 27.8599 67.0863 27.2214C66.4313 26.5825 66.1063 25.6778 66.1063 24.504V13.3614H69.1056ZM97.5044 13.2363V27.8964H94.6371V26.6707C93.8931 27.5937 92.8161 28.0528 91.4043 28.0528C90.4317 28.0528 89.5477 27.8314 88.7601 27.3829C87.9706 26.9339 87.3537 26.2954 86.9035 25.4664C86.4543 24.637 86.2307 23.6744 86.2307 22.5819C86.2307 21.4898 86.4543 20.5272 86.9035 19.6978C87.3537 18.8683 87.9706 18.2299 88.7601 17.7813C89.5477 17.3328 90.4317 17.1109 91.4043 17.1109C92.7271 17.1109 93.7585 17.5386 94.5026 18.3944V13.2363H97.5044ZM131.75 17.3489L134.493 25.3566L137.235 17.3489H140.23L136.113 28.0141H132.814L128.697 17.3489H131.75ZM110.073 19.7634C109.304 19.7634 108.669 20.0295 108.169 20.5639C107.668 21.0957 107.419 21.8098 107.419 22.7074C107.419 23.6018 107.668 24.316 108.169 24.8509C108.672 25.3827 109.304 25.6488 110.073 25.6488C110.833 25.6488 111.46 25.3827 111.96 24.8509C112.461 24.316 112.71 23.6018 112.71 22.7074C112.71 21.8098 112.461 21.0957 111.96 20.5639C111.46 20.0295 110.83 19.7634 110.073 19.7634ZM58.4288 19.7634C57.6591 19.7634 57.0268 20.0295 56.5341 20.5639C56.0389 21.0957 55.7926 21.8098 55.7926 22.7074C55.7926 23.6018 56.0389 24.316 56.5341 24.8509C57.0268 25.3827 57.6591 25.6488 58.4288 25.6488C59.1986 25.6488 59.8308 25.3827 60.323 24.8509C60.8162 24.316 61.0651 23.6018 61.0651 22.7074C61.0651 21.8098 60.8162 21.0957 60.323 20.5639C59.8308 20.0295 59.1986 19.7634 58.4288 19.7634ZM91.9247 19.6379C91.1554 19.6379 90.5207 19.904 90.0201 20.4384C89.52 20.9707 89.2682 21.6848 89.2682 22.5819C89.2682 23.4768 89.52 24.191 90.0201 24.7259C90.5207 25.2577 91.1554 25.5233 91.9247 25.5233C92.6816 25.5264 93.3113 25.2577 93.809 24.7259C94.3096 24.191 94.5609 23.4768 94.5609 22.5819C94.5609 21.6848 94.3096 20.9707 93.809 20.4384C93.3089 19.904 92.6816 19.6379 91.9247 19.6379ZM78.6472 19.7633C77.8522 19.7633 77.1972 20.003 76.6842 20.4855C76.1737 20.965 75.9174 21.5939 75.9174 22.371C75.9174 23.1476 76.1737 23.7765 76.6842 24.259C77.1972 24.7385 77.8522 24.9788 78.6472 24.9788C79.4421 24.9788 80.0922 24.7385 80.6002 24.259C81.1083 23.7765 81.3596 23.1476 81.3596 22.371C81.3596 21.5939 81.1083 20.965 80.6002 20.4855C80.0922 20.003 79.4421 19.7633 78.6472 19.7633ZM123.112 19.5652C122.355 19.5652 121.738 19.8156 121.266 20.3159C120.791 20.8163 120.54 21.5081 120.514 22.3919C121.017 22.2903 125.05 21.4842 125.556 21.3826C125.413 20.83 125.126 20.3891 124.689 20.0605C124.253 19.7293 123.727 19.5652 123.112 19.5652Z" fill="white"/>
<path fill-rule="evenodd" clip-rule="evenodd" d="M46.4241 26.9917C48.017 24.8569 48.9659 22.1877 48.9659 19.2899C48.9659 12.2875 43.4366 6.61029 36.6167 6.61029C36.0621 6.61029 35.5175 6.65143 34.9827 6.72457L34.9822 6.72508C34.5414 6.00178 34.1926 5.46032 33.9789 5.18146C31.5663 2.02616 27.8179 0 23.6071 0C17.3694 0 12.1454 4.45308 10.78 10.4315C10.78 10.4234 10.7726 10.4137 10.7746 10.4061C10.6766 10.403 10.5796 10.397 10.4812 10.397C4.69322 10.397 0 15.2157 0 21.1591C0 27.1015 4.69322 31.9203 10.4812 31.9203C14.3364 31.9203 19.5688 31.967 23.193 31.967C25.3543 31.967 26.5253 31.9411 35.4472 31.967C35.5209 31.9675 35.5907 31.965 35.6634 31.965C36.8225 32.0203 39.3143 31.9761 41.6829 30.8566C42.0628 30.6728 44.3706 29.6818 46.4251 26.9933C46.4246 26.9928 46.4246 26.9923 46.4241 26.9917Z" fill="white" fill-opacity="0.3"/>
<path fill-rule="evenodd" clip-rule="evenodd" d="M46.4241 26.9917C48.017 24.8569 48.9659 22.1877 48.9659 19.2899C48.9659 12.2875 43.4366 6.61029 36.6167 6.61029C36.0621 6.61029 35.5174 6.65143 34.9827 6.72457L34.9822 6.72508C34.5414 6.00178 34.1931 5.46032 33.9789 5.18146C31.5663 2.02616 27.8179 0 23.6071 0C16.3305 0 10.4288 6.05765 10.4288 13.5309C10.4288 21.0047 15.9145 31.967 23.193 31.967C25.3543 31.967 26.5253 31.9411 35.4472 31.967C35.5209 31.9675 35.5907 31.965 35.6634 31.965C36.8225 32.0203 39.3143 31.9761 41.6829 30.8566C42.0628 30.6728 44.3706 29.6818 46.4251 26.9933C46.4246 26.9928 46.4246 26.9923 46.4241 26.9917Z" fill="white" fill-opacity="0.6"/>
<path fill-rule="evenodd" clip-rule="evenodd" d="M45.9588 26.2801C43.9548 22.6082 35.5286 7.20506 33.9792 5.18144C31.5665 2.02614 27.8177 0.000488281 23.6068 0.000488281C16.3308 0.000488281 10.4285 6.05763 10.4285 13.5309C10.4285 21.0047 15.9142 31.967 23.1928 31.967C25.3546 31.967 26.5251 31.9416 35.447 31.967C35.5207 31.9675 35.5904 31.9649 35.6631 31.9649C36.8222 32.0208 39.3145 31.9766 41.6826 30.8571C42.0631 30.6727 44.3708 29.6818 46.4248 26.9933L45.9588 26.2801Z" fill="white"/>
</g>
<defs>
<clipPath id="clip0_65_1726">
<rect width="140" height="32" fill="white"/>
</clipPath>
</defs>
</svg>
