<svg width="315" height="231" viewBox="0 0 315 231" fill="none" xmlns="http://www.w3.org/2000/svg">
<path fill-rule="evenodd" clip-rule="evenodd" d="M330.141 251.662C344.934 231.829 353.746 207.033 353.746 180.113C353.746 115.061 302.396 62.3207 239.059 62.3207C233.909 62.3207 228.851 62.7029 223.884 63.3824L223.88 63.3871C219.786 56.6678 216.547 51.6377 214.563 49.0471C192.156 19.7348 157.345 0.912109 118.239 0.912109C60.3097 0.912109 11.7941 42.2806 -0.886101 97.8192C-0.886101 97.7437 -0.955009 97.654 -0.936638 97.5833C-1.84631 97.555 -2.74678 97.4983 -3.66104 97.4983C-57.4141 97.4983 -101 142.264 -101 197.477C-101 252.681 -57.4141 297.447 -3.66104 297.447C32.1422 297.447 80.7358 297.881 114.394 297.881C134.466 297.881 145.341 297.64 228.198 297.881C228.883 297.886 229.531 297.862 230.206 297.862C240.97 298.376 264.112 297.966 286.109 287.566C289.638 285.858 311.07 276.652 330.15 251.676C330.145 251.671 330.145 251.666 330.141 251.662Z" fill="#FEBF40"/>
<path fill-rule="evenodd" clip-rule="evenodd" d="M330.184 250.892C344.951 231.121 353.746 206.4 353.746 179.563C353.746 114.711 302.49 62.1324 239.27 62.1324C234.13 62.1324 229.081 62.5134 224.123 63.1908L224.119 63.1955C220.033 56.4967 216.804 51.4821 214.819 48.8995C192.454 19.6771 157.707 0.912109 118.672 0.912109C51.2196 0.912109 -3.48926 57.0142 -3.48926 126.227C-3.48926 195.444 47.3629 296.97 114.834 296.97C134.87 296.97 145.724 296.73 228.429 296.97C229.113 296.975 229.759 296.951 230.433 296.951C241.178 297.464 264.277 297.055 286.234 286.687C289.756 284.984 311.149 275.806 330.193 250.907C330.189 250.902 330.189 250.897 330.184 250.892Z" fill="#87CEF2"/>
<path fill-rule="evenodd" clip-rule="evenodd" d="M325.977 243.387C307.343 209.381 228.992 66.7248 214.585 47.9831C192.151 18.7605 157.292 0 118.138 0C50.4815 0 -4.40063 56.0979 -4.40063 125.311C-4.40063 194.529 46.6083 296.056 114.287 296.056C134.389 296.056 145.273 295.821 228.233 296.056C228.918 296.061 229.567 296.037 230.243 296.037C241.021 296.555 264.195 296.145 286.215 285.777C289.753 284.07 310.953 274.976 330.052 250.077L325.977 243.387Z" fill="#2261AE"/>
</svg>
