<svg width="50" height="32" viewBox="0 0 50 32" fill="none" xmlns="http://www.w3.org/2000/svg">
<g clip-path="url(#clip0_701_12691)">
<path fill-rule="evenodd" clip-rule="evenodd" d="M47.4046 27.0087C49.0311 24.8725 50 22.2016 50 19.302C50 12.2952 44.354 6.61444 37.39 6.61444C36.8237 6.61444 36.2676 6.65561 35.7215 6.7288L35.721 6.72931C35.2709 6.00555 34.9148 5.46375 34.6966 5.18472C32.233 2.02743 28.4055 0 24.1056 0C17.7362 0 12.4019 4.45588 11.0077 10.4381C11.0077 10.4299 11.0001 10.4203 11.0021 10.4126C10.9021 10.4096 10.8031 10.4035 10.7026 10.4035C4.79233 10.4035 0 15.2253 0 21.1724C0 27.1185 4.79233 31.9403 10.7026 31.9403C14.6392 31.9403 19.9821 31.9871 23.6828 31.9871C25.8898 31.9871 27.0855 31.9612 36.1958 31.9871C36.2711 31.9876 36.3423 31.9851 36.4166 31.9851C37.6001 32.0405 40.1446 31.9962 42.5632 30.876C42.9512 30.692 45.3077 29.7004 47.4056 27.0102C47.4051 27.0097 47.4051 27.0092 47.4046 27.0087Z" fill="#FEBF40"/>
<path fill-rule="evenodd" clip-rule="evenodd" d="M47.405 27.0087C49.0315 24.8725 50.0004 22.2016 50.0004 19.302C50.0004 12.2952 44.3544 6.61444 37.3904 6.61444C36.8241 6.61444 36.268 6.65561 35.7219 6.7288L35.7214 6.72931C35.2713 6.00555 34.9157 5.46375 34.697 5.18472C32.2334 2.02743 28.4059 0 24.106 0C16.6758 0 10.6494 6.06146 10.6494 13.5394C10.6494 21.0179 16.251 31.9871 23.6832 31.9871C25.8902 31.9871 27.0859 31.9612 36.1962 31.9871C36.2715 31.9876 36.3427 31.9851 36.417 31.9851C37.6005 32.0405 40.145 31.9962 42.5636 30.876C42.9516 30.692 45.3081 29.7004 47.406 27.0102C47.4055 27.0097 47.4055 27.0092 47.405 27.0087Z" fill="#87CEF2"/>
<path fill-rule="evenodd" clip-rule="evenodd" d="M46.9291 26.2964C44.8828 22.6222 36.2786 7.20935 34.6965 5.18445C32.2329 2.02717 28.4049 0.000244141 24.1051 0.000244141C16.6754 0.000244141 10.6484 6.06119 10.6484 13.5392C10.6484 21.0176 16.25 31.9868 23.6823 31.9868C25.8897 31.9868 27.0849 31.9614 36.1953 31.9868C36.2705 31.9873 36.3418 31.9848 36.416 31.9848C37.5996 32.0407 40.1445 31.9965 42.5626 30.8763C42.9511 30.6918 45.3076 29.7002 47.405 27.01L46.9291 26.2964Z" fill="#2261AE"/>
</g>
<defs>
<clipPath id="clip0_701_12691">
<rect width="50" height="32" fill="white"/>
</clipPath>
</defs>
</svg>
