<svg width="18" height="18" viewBox="0 0 18 18" fill="none" xmlns="http://www.w3.org/2000/svg">
<path d="M8.99984 17.3333C13.6027 17.3333 17.3332 13.6029 17.3332 9C17.3332 4.39714 13.6027 0.666668 8.99984 0.666668C4.39697 0.666668 0.666504 4.39714 0.666504 9C0.666504 13.6029 4.39697 17.3333 8.99984 17.3333ZM8.21859 11.8646V9.78125H6.13525C5.70231 9.78125 5.354 9.43294 5.354 9C5.354 8.56706 5.70231 8.21875 6.13525 8.21875H8.21859V6.13542C8.21859 5.70248 8.5669 5.35417 8.99984 5.35417C9.43278 5.35417 9.78109 5.70248 9.78109 6.13542V8.21875H11.8644C12.2974 8.21875 12.6457 8.56706 12.6457 9C12.6457 9.43294 12.2974 9.78125 11.8644 9.78125H9.78109V11.8646C9.78109 12.2975 9.43278 12.6458 8.99984 12.6458C8.5669 12.6458 8.21859 12.2975 8.21859 11.8646Z" fill="currentcolor"/>
</svg>
