<svg width="18" height="20" viewBox="0 0 18 20" fill="none" xmlns="http://www.w3.org/2000/svg">
<path d="M16.6223 6.81868C16.5063 6.90869 14.4581 8.06281 14.4581 10.6291C14.4581 13.5974 17.0644 14.6475 17.1424 14.6735C17.1304 14.7375 16.7283 16.1116 15.7682 17.5118C14.9121 18.7439 14.0181 19.974 12.6579 19.974C11.2978 19.974 10.9477 19.1839 9.37759 19.1839C7.84743 19.1839 7.30338 20 6.05925 20C4.81513 20 3.94704 18.8599 2.94894 17.4597C1.79283 15.8156 0.858734 13.2613 0.858734 10.8371C0.858734 6.94869 3.38699 4.88649 5.87524 4.88649C7.19737 4.88649 8.29948 5.75458 9.12956 5.75458C9.91964 5.75458 11.1518 4.83448 12.6559 4.83448C13.226 4.83448 15.2742 4.88649 16.6223 6.81868ZM11.9418 3.18832C12.5639 2.45024 13.0039 1.42614 13.0039 0.40204C13.0039 0.260026 12.9919 0.116012 12.9659 0C11.9538 0.0380038 10.7497 0.674067 10.0237 1.51615C9.45359 2.16422 8.92154 3.18832 8.92154 4.22642C8.92154 4.38244 8.94754 4.53845 8.95954 4.58846C9.02355 4.60046 9.12756 4.61446 9.23157 4.61446C10.1397 4.61446 11.2818 4.0064 11.9418 3.18832Z" fill="#191A1A"/>
</svg>
