<svg width="258" height="574" viewBox="0 0 258 574" fill="none" xmlns="http://www.w3.org/2000/svg">
<path d="M116.411 27.7903C135.195 25.4424 154.761 36.679 166.725 56.1334C167.563 60.8852 168.346 64.7985 168.905 67.7614C169.522 71.5395 170.381 75.2741 171.476 78.9421C172.514 82.204 173.842 85.366 175.446 88.3898L186.626 94.5951C186.626 108.515 178.688 119.808 168.458 122.547C161.749 124.336 150.792 123.33 146.096 115.671C144.163 111.975 143.646 107.701 144.643 103.651C143.469 100.409 142.239 97.1107 141.009 93.8683C139.181 95.4611 137.051 96.6684 134.745 97.4177C132.44 98.167 130.007 98.4429 127.592 98.2289C124.607 97.3275 121.854 95.7848 119.527 93.7087C117.2 91.6327 115.354 89.0733 114.119 86.2096C105.495 71.0737 98.6833 54.9743 93.8263 38.2443C100.214 32.693 108.046 29.068 116.411 27.7903Z" fill="#FFEFD9"/>
<path d="M141.12 93.5894L151.965 82.7441L144.754 103.372L141.12 93.5894Z" fill="#F9D6A7"/>
<path d="M155.878 66.8679C158.624 69.5959 161.516 72.1713 164.543 74.5826C169.742 78.7194 172.37 80.8438 173.488 80.1729C174.606 79.5021 176.786 77.0982 171.755 36.2327C170.413 25.052 169.239 17.1696 163.258 13.8713C160.635 12.6619 157.682 12.3667 154.872 13.0328C152.857 8.47376 149.4 4.70276 145.033 2.29928C133.852 -3.29108 117.473 1.40484 105.174 15.3807C103.577 14.2127 101.612 13.66 99.6401 13.8244C97.6683 13.9887 95.822 14.8589 94.4403 16.2752C93.4276 17.4504 92.7735 18.8915 92.5554 20.4275C92.3374 21.9634 92.5647 23.5296 93.2104 24.9402C91.1358 25.1152 89.1741 25.9587 87.62 27.3441C86.5075 28.3785 85.6393 29.6476 85.0785 31.0594C84.5176 32.4712 84.2783 33.9902 84.3777 35.506C84.5028 38.3657 85.6538 41.0845 87.62 43.1648C89.2776 44.5688 91.2013 45.6242 93.2761 46.2678C95.3508 46.9113 97.5341 47.1299 99.6952 46.9103C120.268 46.9103 128.765 38.413 135.25 42.9412C141.735 47.4694 140.225 58.2588 145.033 58.4824C145.867 58.5149 146.69 58.2798 147.381 57.8115C147.619 56.0213 148.487 54.3744 149.829 53.1657C151.171 51.9571 152.899 51.2655 154.704 51.2149C155.727 51.3893 156.705 51.7668 157.58 52.3252C158.455 52.8836 159.209 53.6115 159.797 54.4661C160.386 55.3206 160.798 56.2845 161.008 57.3007C161.218 58.317 161.223 59.365 161.021 60.3831C160.764 61.8036 160.159 63.1386 159.262 64.2698C158.365 65.401 157.203 66.2934 155.878 66.8679V66.8679Z" fill="#0A2965"/>
<path opacity="0.29" d="M86.6149 29.581H85.9999C86.1293 29.3448 86.2789 29.1204 86.4472 28.9102C86.4661 29.1414 86.5228 29.368 86.6149 29.581V29.581Z" fill="#0B2851"/>
<path d="M164.879 40.6486C163.537 29.8033 162.419 21.5854 156.381 18.2871C153.778 17.0777 150.844 16.7823 148.052 17.4486C146.001 12.8947 142.529 9.12855 138.157 6.71509C134.243 4.99434 129.983 4.20957 125.713 4.42306C121.443 4.63655 117.282 5.84243 113.559 7.94497C124.293 0.174375 136.312 -1.89406 144.921 2.35461C149.288 4.7581 152.745 8.5291 154.76 13.0881C157.571 12.422 160.523 12.7173 163.146 13.9267C169.127 17.0014 170.301 25.1074 171.643 36.2881C176.674 77.1536 174.886 79.7811 173.376 80.2283C171.867 80.6755 170.916 79.4456 168.177 77.3213C167.741 65.0464 166.64 52.8042 164.879 40.6486V40.6486Z" fill="#102349"/>
<path d="M86.617 476.472C90.1637 480.041 92.5422 484.603 93.4373 489.554C94.1081 496.318 87.847 498.275 82.8157 501.126C73.2562 506.716 71.02 515.773 57.5472 521.139C49.4971 524.27 43.5154 524.773 39.9376 520.692C39.4373 519.322 39.2979 517.847 39.5329 516.408C39.7679 514.968 40.3693 513.614 41.2793 512.474C41.2793 512.474 56.5969 497.436 56.9323 496.989C59.2344 493.762 61.3438 490.402 63.2494 486.926C63.2494 486.255 60.9574 471.832 60.9574 471.832L80.7472 464.006L86.617 476.472Z" fill="#173A6D"/>
<path d="M85.0511 473.51L80.5228 463.895L84.9393 473.23L85.0511 473.51Z" fill="#0A2647"/>
<path d="M88.9103 479.1C89.9435 481.507 90.8393 483.97 91.5937 486.479C92.2645 493.299 86.0033 495.256 80.972 498.107C71.4125 503.697 69.1763 512.754 55.7035 518.064C48.3801 520.971 42.7897 521.586 38.9324 518.623C38.9645 519.346 39.1554 520.052 39.4915 520.692C43.0693 524.773 49.051 524.27 57.1011 521.139C70.5739 515.549 72.8101 506.66 82.3696 501.126C87.345 498.275 93.5503 496.318 92.9913 489.554C92.0753 485.911 90.7042 482.399 88.9103 479.1Z" fill="#0A2965"/>
<path d="M110.321 532.825C111.667 537.593 111.452 542.667 109.706 547.304C107.988 549.617 106.402 552.025 104.954 554.516C102.718 558.988 101.6 566.814 93.3261 570.392C85.7967 573.793 77.2442 574.154 69.4553 571.398C68.2331 570.923 67.1287 570.188 66.2184 569.244C65.3081 568.3 64.6136 567.17 64.183 565.931C63.7524 564.693 63.596 563.375 63.7244 562.07C63.8529 560.765 64.2632 559.504 64.9271 558.373C66.7984 555.171 69.0717 552.221 71.6915 549.596L82.8722 535.788L84.7729 521.532L110.712 520.135L110.321 532.825Z" fill="#173A6D"/>
<path d="M88.742 572.124C87.4941 572.471 86.2239 572.733 84.9405 572.907V572.907C83.5442 572.991 82.1441 572.991 80.7478 572.907H79.6856C78.3998 572.907 77.1141 572.907 75.8842 572.628H75.4369C74.1379 572.413 72.8504 572.133 71.5796 571.789L70.6292 571.51L68.6726 570.727C67.3451 570.058 66.2052 569.069 65.356 567.849C64.5068 566.629 63.9751 565.216 63.809 563.739C69.3993 570.168 84.661 571.789 93.941 566.981C102.215 563.404 103.277 555.801 105.513 551.105C106.978 548.612 108.583 546.204 110.321 543.893C110.656 542.887 110.936 542.048 111.159 541.266C111.088 542.19 110.938 543.106 110.712 544.005V544.005C110.712 544.955 110.153 545.906 109.762 547.08C109.389 547.713 108.998 548.272 108.588 548.757C107.861 549.819 107.134 550.713 106.296 551.999C105.457 553.285 105.457 553.397 105.01 554.291C104.563 555.186 103.948 556.751 103.389 558.149C102.682 560.753 101.423 563.175 99.6958 565.249C97.969 567.323 95.8156 569.001 93.382 570.168C92.2134 570.753 90.9978 571.239 89.7483 571.621L88.742 572.124Z" fill="#0A2965"/>
<path d="M110.042 531.371C108.112 531.082 106.141 531.456 104.451 532.434C101.153 534.502 100.874 538.695 98.861 538.695C97.8548 538.695 97.7989 537.465 95.8982 535.788C94.0314 534.064 91.6161 533.054 89.0779 532.937C86.7757 533.083 84.6163 534.103 83.0403 535.788L84.941 521.532L110.88 520.135L110.042 531.371Z" fill="#87CEF2"/>
<path d="M63.0258 486.927C64.0465 486.507 65.1915 486.507 66.2123 486.927C68.2248 488.101 67.554 491.12 68.7279 491.511C69.9019 491.902 72.0821 486.312 77.952 481.616C80.6054 479.619 83.4303 477.86 86.3934 476.361V476.361L80.5236 463.895L60.7337 471.721L63.0258 486.927Z" fill="#87CEF2"/>
<path d="M97.4079 543.556C97.4079 543.556 83.2085 535.059 78.4008 541.208" stroke="#0A2965" stroke-width="0.25" stroke-miterlimit="10"/>
<path d="M93.7168 548.701C93.7168 548.701 80.2998 540.651 75.4361 545.291" stroke="#0A2965" stroke-width="0.25" stroke-miterlimit="10"/>
<path d="M89.4683 553.508C89.4683 553.508 79.238 545.178 73.5358 548.532" stroke="#0A2965" stroke-width="0.25" stroke-miterlimit="10"/>
<path d="M64.9265 497.216C64.9265 497.216 60.8456 490.172 59.0568 492.687" stroke="#0A2965" stroke-width="0.25" stroke-miterlimit="10"/>
<path d="M59.9512 500.398C59.9512 500.398 58.0504 494.416 56.7087 496.988" stroke="#0A2965" stroke-width="0.25" stroke-miterlimit="10"/>
<path d="M56.7078 503.305C56.7078 503.305 55.1425 497.715 53.6331 499.671" stroke="#0A2965" stroke-width="0.25" stroke-miterlimit="10"/>
<path d="M137.823 268.233C112.051 283.607 90.6402 297.303 74.5399 307.925C35.9105 333.417 24.2266 343.535 24.2266 356.896C24.2266 365.058 28.5872 376.407 38.1467 379.761C42.7879 380.934 47.6719 380.71 52.1868 379.119C56.7017 377.528 60.6465 374.64 63.5269 370.816L177.57 325.087C181.302 318.796 183.143 311.564 182.872 304.255C182.601 296.945 180.23 289.869 176.043 283.871C171.856 277.874 166.03 273.21 159.262 270.436C152.494 267.663 145.07 266.898 137.879 268.233H137.823Z" fill="#2261AE"/>
<path d="M61.1794 364.557L172.483 293.951C173.673 289.996 174.294 285.893 174.328 281.764C175.167 282.826 176.061 283.888 176.788 285.006C180.571 290.979 182.639 297.877 182.768 304.946C182.896 312.015 181.079 318.983 177.515 325.089L63.4715 370.818C62.6888 368.75 61.9621 366.625 61.1794 364.557Z" fill="#1D589F"/>
<path d="M63.472 370.817C65.4845 376.408 68.2238 383.452 71.3544 392.284C72.9197 396.589 77.6715 409.95 80.9698 420.236C86.1217 436.079 90.4323 452.183 93.8835 468.481C88.9816 473.668 82.9849 477.698 76.3298 480.277C71.3192 482.254 66.0048 483.35 60.6209 483.519C40.1602 434.436 26.4079 396.533 21.4884 378.812C18.7549 370.957 18.6177 362.432 21.0971 354.494C21.9248 351.121 23.4328 347.954 25.5284 345.185C27.6241 342.417 30.2633 340.105 33.2841 338.393C37.9294 336.224 43.226 335.904 48.0985 337.499C58.1052 340.853 64.9814 354.438 63.472 370.817Z" fill="#2261AE"/>
<path d="M81.0253 420.125L76.3853 480.165C79.0626 479.283 81.6318 478.102 84.0441 476.644C87.7663 474.436 91.1077 471.642 93.9391 468.37C91.7588 457.972 89.0755 447.071 85.833 435.778C84.2677 430.411 82.6465 425.212 81.0253 420.125Z" fill="#1D589F"/>
<path d="M171.533 296.855C154.165 315.49 136.854 334.665 119.598 354.38C98.7462 378.027 87.6215 391.444 91.367 404.693C92.4321 408.379 94.3779 411.75 97.0368 414.516C99.6957 417.282 102.988 419.36 106.629 420.57C111.669 421.788 116.954 421.529 121.851 419.824C126.748 418.119 131.051 415.04 134.245 410.954C153.755 399.214 169.241 388.593 179.918 380.934C223.523 349.628 229.952 337.05 232.803 329.223C237.276 316.263 237.917 302.288 234.648 288.973L171.533 296.855Z" fill="#2261AE"/>
<path d="M97.295 381.492C93.642 387.289 90.784 393.55 88.7976 400.108C88.0144 402.644 87.3613 405.219 86.841 407.822C84.7725 418.165 81.2507 462.832 77.8965 523.487C80.6881 526.723 84.1117 529.354 87.9571 531.219C91.8024 533.084 95.9883 534.144 100.258 534.332C107.241 534.523 114.081 532.335 119.656 528.127C124.576 489.106 129.514 449.974 134.471 410.729C137.887 405.792 139.302 399.741 138.429 393.801C137.557 387.86 134.463 382.472 129.771 378.724C125.08 374.977 119.141 373.149 113.154 373.611C107.168 374.073 101.58 376.79 97.5186 381.212L97.295 381.492Z" fill="#2261AE"/>
<path d="M115.909 167.66C115.909 176.717 115.909 186.108 116.524 195.612C116.524 201.202 117.027 206.793 117.363 212.383C117.54 215.698 118.697 218.886 120.687 221.543C122.677 224.201 125.412 226.207 128.543 227.309C131.965 228.326 135.639 228.067 138.886 226.582C141.898 225.05 144.344 222.599 145.872 219.584C147.399 216.569 147.928 213.147 147.383 209.811L151.352 177.611C139.195 175.979 127.324 172.667 116.077 167.772L115.909 167.66Z" fill="#FFEFD9"/>
<path d="M124.24 270.077C135.348 285.109 151.046 296.117 168.963 301.439C180.889 304.592 193.342 305.226 205.527 303.301C217.712 301.376 229.363 296.934 239.737 290.259C238.842 275.891 237.445 260.63 235.432 244.753C233.42 228.877 230.96 213.503 228.277 199.192C235.186 197.594 241.884 195.193 248.234 192.036C251.56 190.387 254.772 188.52 257.85 186.446C253.936 176.159 246.669 157.376 237.668 136.747C234.931 129.82 230.973 123.439 225.984 117.908C221.561 113.199 216.499 109.134 210.946 105.833C203.33 100.999 195.143 97.131 186.573 94.3166C186.664 100.045 185.069 105.674 181.988 110.504C178.907 115.335 174.475 119.153 169.242 121.486C166.207 122.686 162.92 123.11 159.679 122.72C156.438 122.329 153.346 121.137 150.682 119.25C148.558 117.224 146.921 114.743 145.894 111.993C144.868 109.242 144.479 106.295 144.757 103.373C143.583 100.131 142.353 96.8323 141.123 93.5898C138.684 96.0984 135.436 97.6629 131.955 98.0062C128.766 98.2596 125.583 97.4539 122.898 95.7142C120.613 96.9646 118.569 98.6115 116.861 100.578C113.367 104.882 111.262 110.145 110.823 115.672C109.568 128.547 109.325 141.5 110.096 154.413C110.096 159.053 110.096 166.265 110.096 175.265C112.748 177.75 115.89 179.654 119.32 180.855C122.337 181.904 125.519 182.397 128.712 182.309C128.265 200.03 127.594 218.143 126.588 236.647C125.805 247.865 125.023 259.009 124.24 270.077Z" fill="#B9DFFE"/>
<path d="M178.355 179.681C177.956 177.385 177.319 175.136 176.454 172.972C174.388 167.232 170.816 162.154 166.112 158.27C160.521 153.853 155.714 153.406 152.08 156.76C151.659 157.2 151.267 157.667 150.906 158.158C149.732 159.947 148.558 161.624 147.44 163.413L138.887 177.053L137.936 178.395C137.905 178.599 137.905 178.806 137.936 179.01C139.97 183.639 143.12 187.692 147.104 190.806C148.034 191.497 149.005 192.132 150.011 192.706L163.82 200.924L165.217 201.763C165.776 201.763 166.279 202.098 166.782 202.154C167.643 202.307 168.526 202.276 169.374 202.065C170.221 201.853 171.015 201.464 171.702 200.924C174.23 198.836 176.063 196.028 176.957 192.874C177.804 190.29 178.275 187.598 178.355 184.88C178.487 183.149 178.487 181.411 178.355 179.681V179.681Z" fill="#2261AE"/>
<path d="M178.355 179.682C178.618 181.402 178.749 183.14 178.747 184.881C178.667 187.599 178.196 190.291 177.349 192.875C176.455 196.029 174.622 198.837 172.094 200.925C171.407 201.465 170.613 201.854 169.766 202.065C168.918 202.277 168.035 202.308 167.175 202.155C166.671 202.155 166.168 201.875 165.609 201.764L172.877 206.068L177.964 209.143C179.273 209.979 180.707 210.602 182.213 210.988C183.502 211.378 184.884 211.325 186.14 210.839C187.397 210.353 188.454 209.461 189.145 208.304C190.514 205.939 191.064 203.188 190.71 200.478C190.414 196.904 189.407 193.426 187.747 190.247C186.149 186.807 183.822 183.755 180.927 181.303C179.976 180.688 179.138 180.241 178.355 179.682Z" fill="#FEBF40"/>
<path d="M137.938 178.398L138.888 177.056L147.442 163.415C148.56 161.626 149.734 159.949 150.908 158.16L148.56 156.707C147.003 155.755 145.238 155.198 143.417 155.086C141.733 154.959 140.061 155.457 138.721 156.483C136.764 158.158 135.523 160.519 135.255 163.08C135.109 164.474 135.109 165.879 135.255 167.273C135.388 169.491 135.782 171.687 136.429 173.813C136.82 175.155 137.379 176.497 137.826 177.839L137.938 178.398Z" fill="#87CEF2"/>
<path d="M126.31 139.988L128.49 182.195C126.006 182.601 123.461 182.429 121.055 181.692C118.994 181.021 117.092 179.937 115.464 178.506L126.31 139.988Z" fill="#8BB8E0"/>
<path d="M198.089 157.15L211.394 202.32L228.165 199.19C230.457 211.824 232.582 225.017 234.426 238.77C236.83 256.715 238.507 273.933 239.625 290.257C233.194 294.692 226.125 298.123 218.662 300.431C212.185 302.438 205.478 303.603 198.704 303.897C202.37 285.802 204.354 267.405 204.63 248.944C204.63 234.521 203.959 223.061 202.226 200.587C200.884 182.81 199.319 167.772 198.089 157.15Z" fill="#8BB8E0"/>
<path d="M132.457 362.038L202.224 321.564C202.688 321.293 203.073 320.906 203.341 320.44C203.608 319.974 203.749 319.446 203.749 318.909C203.749 318.371 203.608 317.844 203.341 317.378C203.073 316.912 202.688 316.524 202.224 316.253L100.368 257.219C99.5828 256.778 98.6973 256.547 97.7966 256.547C96.896 256.547 96.0104 256.778 95.225 257.219L23.6685 295.625C23.1131 295.851 22.6377 296.238 22.3031 296.736C21.9686 297.234 21.7899 297.82 21.7899 298.42C21.7899 299.02 21.9686 299.606 22.3031 300.104C22.6377 300.602 23.1131 300.989 23.6685 301.215L127.202 362.374C128.038 362.754 128.955 362.922 129.871 362.864C130.788 362.805 131.676 362.522 132.457 362.038Z" fill="#8BB8E0"/>
<path d="M132.457 358.964L202.224 318.49C202.76 318.245 203.213 317.851 203.531 317.356C203.849 316.86 204.018 316.284 204.018 315.695C204.018 315.106 203.849 314.53 203.531 314.034C203.213 313.539 202.76 313.145 202.224 312.9L100.368 253.866C99.5826 253.425 98.697 253.193 97.7964 253.193C96.8958 253.193 96.0102 253.425 95.2248 253.866L23.6682 292.271C23.1896 292.53 22.7897 292.914 22.511 293.381C22.2324 293.848 22.0854 294.383 22.0854 294.927C22.0854 295.471 22.2324 296.005 22.511 296.472C22.7897 296.94 23.1896 297.323 23.6682 297.582L127.09 358.908C127.897 359.399 128.821 359.663 129.766 359.673C130.71 359.683 131.64 359.438 132.457 358.964V358.964Z" fill="#D5ECFE"/>
<path opacity="0.5" d="M122.17 348.345L175.111 316.983C175.457 316.76 175.742 316.454 175.939 316.093C176.136 315.731 176.239 315.326 176.239 314.914C176.239 314.503 176.136 314.098 175.939 313.736C175.742 313.375 175.457 313.069 175.111 312.846L98.6346 267.229C98.0447 266.901 97.3808 266.729 96.7059 266.729C96.0309 266.729 95.3672 266.901 94.7773 267.229L40.439 296.913C40.0928 297.136 39.808 297.442 39.6109 297.804C39.4137 298.165 39.3103 298.57 39.3103 298.982C39.3103 299.394 39.4137 299.799 39.6109 300.16C39.808 300.521 40.0928 300.827 40.439 301.05L118.201 348.289C118.799 348.646 119.481 348.839 120.178 348.849C120.875 348.858 121.562 348.685 122.17 348.345V348.345Z" fill="#8BB8E0"/>
<path d="M112.834 262.697C112.834 263.256 112.834 264.094 112.834 265.101C112.834 268.399 112.834 270.076 113.169 272.144C113.135 274.245 112.929 276.339 112.555 278.406C111.492 287.183 111.828 289.586 110.654 289.586C109.48 289.586 107.188 288.021 106.405 285.897C105.622 283.772 106.405 282.934 106.014 280.027C105.832 278.833 105.493 277.667 105.008 276.561C103.716 278.144 102.61 279.87 101.709 281.704C99.3816 285.18 97.5032 288.937 96.1189 292.885C95.9865 293.486 95.6429 294.019 95.1505 294.389C94.6582 294.758 94.0496 294.938 93.4356 294.897C93.0762 294.793 92.7432 294.614 92.4588 294.371C92.1743 294.128 91.9451 293.827 91.7863 293.488C91.6276 293.15 91.5429 292.781 91.5381 292.407C91.5333 292.033 91.6084 291.662 91.7584 291.319L96.2307 276.784C94.7772 279.431 93.3237 282.282 91.8703 285.338C90.6963 287.853 89.6341 290.257 88.6837 292.605C88.6845 293.165 88.4701 293.703 88.0852 294.109C87.7002 294.514 87.174 294.757 86.6153 294.785C86.0801 294.821 85.5504 294.659 85.1276 294.329C84.7047 293.999 84.4183 293.525 84.3232 292.997C84.0437 292.997 82.7021 293.835 81.9194 293.276C81.1368 292.717 81.3045 291.599 81.4163 290.705C81.5319 288.164 81.8686 285.639 82.4225 283.157C83.6909 279.163 85.184 275.244 86.8948 271.418L79.3478 282.599C78.9796 282.997 78.4994 283.274 77.9705 283.394C77.4415 283.513 76.8888 283.47 76.385 283.269C75.8845 282.689 75.6331 281.935 75.6855 281.171C75.7378 280.407 76.0897 279.695 76.6645 279.188L83.2052 268.567C85.0784 265.885 87.2544 263.427 89.69 261.243C92.0325 259.132 94.5794 257.259 97.2929 255.653C97.7127 254.591 98.3437 253.625 99.1476 252.814C99.9516 252.003 100.912 251.363 101.97 250.934C103.028 250.504 104.163 250.294 105.305 250.316C106.447 250.338 107.572 250.591 108.613 251.061C109.654 251.53 110.589 252.206 111.362 253.047C112.134 253.889 112.728 254.878 113.107 255.955C113.486 257.033 113.642 258.176 113.566 259.315C113.491 260.455 113.184 261.567 112.666 262.585L112.834 262.697Z" fill="#FFEFD9"/>
<path d="M105.735 272.871C106.238 274.581 106.648 276.316 106.965 278.07C108.083 284.387 107.356 287.797 109.649 289.53H109.984C109.132 289.259 108.357 288.788 107.725 288.156C107.093 287.524 106.621 286.749 106.35 285.897C105.735 284.052 106.35 282.934 105.959 280.027C105.777 278.832 105.438 277.667 104.953 276.561C104.309 277.365 103.712 278.204 103.164 279.076L105.735 272.871Z" fill="#F9D6A7"/>
<path d="M86.6169 295.01C89.4772 287.458 93.0135 280.18 97.1827 273.264L95.4497 278.575C94.2198 280.811 93.0458 283.047 91.8719 285.563C90.6979 288.078 89.6357 290.482 88.6853 292.83C88.6861 293.389 88.4718 293.928 88.0868 294.333C87.7018 294.739 87.1756 294.982 86.6169 295.01V295.01Z" fill="#F9D6A7"/>
<path d="M85.7769 286.344C86.7272 283.381 90.92 275.61 90.92 275.163C90.92 274.716 87.9571 283.548 87.6216 284.666L84.547 293.276H84.2674C84.6038 290.932 85.1083 288.615 85.7769 286.344V286.344Z" fill="#F9D6A7"/>
<path d="M87.6217 269.963L85.8328 273.373L79.5156 282.597C79.2481 282.768 78.9678 282.917 78.6771 283.044L87.6217 269.963Z" fill="#F9D6A7"/>
<path d="M21.2087 300.824L125.748 361.032C126.15 361.27 126.613 361.383 127.079 361.357C127.545 361.331 127.993 361.166 128.365 360.884C128.737 360.602 129.017 360.215 129.168 359.774C129.319 359.332 129.335 358.856 129.214 358.405L110.207 286.848C109.93 285.867 109.29 285.028 108.418 284.5L3.65502 224.348C3.25 224.12 2.78663 224.018 2.32346 224.054C1.86028 224.09 1.41806 224.262 1.05297 224.55C0.687877 224.837 0.416305 225.226 0.272453 225.668C0.128601 226.11 0.118904 226.584 0.244815 227.031L19.5316 298.532C19.6459 299.006 19.8529 299.452 20.1408 299.846C20.4286 300.239 20.7916 300.572 21.2087 300.824V300.824Z" fill="#8BB8E0"/>
<path d="M0.022047 226.638C0.318008 226.587 0.620564 226.587 0.916525 226.638L105.68 286.79C106.552 287.318 107.191 288.157 107.469 289.138L126.476 360.695C126.476 360.695 126.476 360.695 126.476 361.03C126.161 361.081 125.84 361.081 125.526 361.03L21.2095 300.822C20.7716 300.581 20.3872 300.254 20.0797 299.86C19.7722 299.466 19.5479 299.013 19.4205 298.53L0.022047 227.029C-0.00683689 226.9 -0.00683689 226.767 0.022047 226.638V226.638Z" fill="#D5ECFE"/>
<path d="M57.322 279.469L64.5895 283.885C65.6155 284.524 66.4718 285.402 67.085 286.444C67.6983 287.485 68.0505 288.66 68.1114 289.867L68.3909 296.575C68.4633 297.881 68.1849 299.182 67.5847 300.343C66.9844 301.505 66.0842 302.484 64.9774 303.18C63.8707 303.876 62.5977 304.263 61.2908 304.301C59.984 304.339 58.6909 304.026 57.5457 303.396L50.6137 299.65C49.5336 299.069 48.6153 298.228 47.9418 297.203C47.2684 296.179 46.8609 295.002 46.7563 293.78L46.1414 286.401C46.0264 285.044 46.2892 283.681 46.9006 282.465C47.5121 281.248 48.4484 280.224 49.6059 279.506C50.7634 278.788 52.0968 278.405 53.4587 278.399C54.8206 278.392 56.1577 278.762 57.322 279.469Z" fill="white"/>
<path d="M97.4598 255.766C101.52 243.733 106.337 231.97 111.883 220.546C114.007 216.13 116.187 211.937 118.424 207.856C120.927 203.04 124.193 198.66 128.095 194.887C127.648 208.527 127.145 222.391 126.362 236.535C126.362 237.877 126.362 239.162 126.082 240.504L112.833 262.865C112.478 264.016 111.882 265.079 111.084 265.982C110.287 266.885 109.307 267.608 108.209 268.103C107.111 268.599 105.92 268.855 104.715 268.855C103.51 268.855 102.32 268.599 101.221 268.104C100.123 267.609 99.1429 266.886 98.3455 265.983C97.548 265.08 96.9516 264.018 96.5958 262.867C96.2401 261.716 96.1333 260.503 96.2822 259.307C96.4311 258.112 96.8325 256.962 97.4598 255.933V255.766Z" fill="#FFEFD9"/>
<path d="M253.937 189.467C254.959 200.02 255.146 210.637 254.496 221.22C254.161 227.425 253.546 233.295 252.819 238.718C252.483 241.47 251.399 244.078 249.684 246.256C247.969 248.434 245.688 250.101 243.092 251.073C239.445 252.306 235.477 252.186 231.911 250.737C228.684 249.374 225.983 247.005 224.21 243.983C222.437 240.962 221.687 237.448 222.072 233.966L216.482 201.039C222.258 200.085 227.971 198.778 233.588 197.126C240.548 195.071 247.349 192.511 253.937 189.467V189.467Z" fill="#FFEFD9"/>
<path d="M216.592 200.98C218.102 200.98 219.723 200.365 221.344 200.086L227.27 234.746C226.946 237.97 227.484 241.221 228.83 244.168C230.176 247.115 232.28 249.651 234.929 251.517C233.938 251.296 232.966 250.997 232.022 250.623C228.794 249.26 226.094 246.891 224.321 243.869C222.548 240.847 221.798 237.334 222.183 233.852L216.592 200.98Z" fill="#F9D6A7"/>
<path d="M222.183 233.907C216.145 237.205 209.996 240.727 203.734 244.584C189.854 253.134 176.472 262.466 163.652 272.536C161.545 273.183 159.726 274.538 158.504 276.372C157.281 278.205 156.73 280.405 156.943 282.599C157.436 283.872 158.191 285.027 159.157 285.991C160.124 286.955 161.281 287.706 162.556 288.195C163.83 288.685 165.192 288.903 166.556 288.834C167.919 288.766 169.253 288.413 170.472 287.798C179.64 285.282 187.243 282.599 192.33 280.586C208.279 274.829 223.335 266.849 237.053 256.883C241.078 253.864 244.488 251.293 247.283 248.609C249.201 246.961 250.532 244.734 251.076 242.264C251.621 239.795 251.349 237.215 250.302 234.913C248.704 231.57 245.998 228.884 242.643 227.31C239 225.839 234.956 225.693 231.217 226.899C227.478 228.104 224.28 230.585 222.183 233.907Z" fill="#FFEFD9"/>
<path d="M163.651 272.59C160.52 273.038 157.278 273.597 153.98 274.156L144.141 276.056C142.27 276.086 140.402 276.236 138.55 276.504C134.581 277.175 134.246 277.901 134.19 278.125C134.134 278.349 135.028 280.641 136.817 281.87L127.09 292.324C125.693 293.554 125.245 295.176 125.86 296.126C126.103 296.523 126.48 296.82 126.922 296.964C124.351 298.642 123.289 301.045 123.904 302.555C124.173 303.117 124.627 303.571 125.189 303.841C124.882 304.23 124.684 304.694 124.615 305.185C124.546 305.676 124.609 306.177 124.798 306.636C125.469 307.53 127.593 307.754 129.494 306.189L140.675 297.356L135.084 302.946C134.813 303.351 134.668 303.828 134.668 304.316C134.668 304.803 134.813 305.28 135.084 305.685C135.33 305.942 135.625 306.147 135.951 306.287C136.278 306.427 136.63 306.499 136.985 306.499C137.34 306.499 137.692 306.427 138.019 306.287C138.346 306.147 138.641 305.942 138.886 305.685C140.842 304.288 142.855 302.834 144.867 301.269C146.88 299.704 148.837 298.138 150.458 296.629L157.558 294.393C160.023 293.814 162.435 293.028 164.769 292.045C166.842 291.021 168.731 289.661 170.359 288.02C172.131 286.571 173.3 284.516 173.641 282.254C173.982 279.991 173.47 277.683 172.204 275.777C171.204 274.517 169.879 273.555 168.371 272.993C166.864 272.432 165.232 272.292 163.651 272.59V272.59Z" fill="#FFEFD9"/>
<path d="M139.669 285.172L126.755 296.968C126.755 296.968 126.084 297.303 125.693 296.129L139.669 285.172Z" fill="#F9D6A7"/>
<path d="M136.65 281.872C138.791 279.573 141.328 277.679 144.141 276.281C144.141 276.281 127.426 276.225 136.65 281.872Z" fill="#F9D6A7"/>
<path d="M141.904 288.412L125.133 303.841C125.133 303.841 123.903 303.841 123.847 302.555C123.736 302.555 143.358 285.84 141.904 288.412Z" fill="#F9D6A7"/>
<path d="M147.216 292.046C145.092 293.835 142.912 295.568 140.675 297.636C136.539 300.934 132.514 304.065 128.489 307.028C128.119 307.217 127.724 307.349 127.315 307.419C126.742 307.523 126.155 307.523 125.582 307.419C129.271 304.848 133.073 301.829 136.762 299.146C140.452 296.462 143.471 293.947 146.601 291.375L147.216 292.046Z" fill="#F9D6A7"/>
</svg>
