<svg width="1120" height="745" viewBox="0 0 1120 745" fill="none" xmlns="http://www.w3.org/2000/svg">
<path d="M1059.44 626.853L1057.96 628.872C1014.24 686.284 965.997 709.426 953.786 715.283C953.115 715.605 952.553 715.874 952.107 716.095C898.587 741.894 842.18 742.936 815.878 741.655L815.805 741.651H815.732C814.815 741.651 814.078 741.665 813.366 741.677C812.556 741.692 811.779 741.706 810.808 741.699L810.796 741.699C661.599 741.257 607.145 741.461 569.34 741.603C555.435 741.655 543.782 741.699 530.495 741.699C489.698 741.699 439.985 741.435 389.492 741.166L387.114 741.154C335.811 740.881 283.837 740.609 239.737 740.609C109.134 740.609 3 629.659 3 492.545C3 355.408 109.134 244.458 239.737 244.458C241.177 244.458 242.549 244.517 243.993 244.578C244.753 244.611 245.533 244.644 246.352 244.67L246.419 242.579L249.499 242.919C280.445 104.71 399.871 3 539.864 3C635.147 3 719.745 50.7071 773.657 122.09C778.465 128.49 787.382 141.6 797.425 158.41L799.448 161.797L801.462 159.686C802.596 159.526 803.731 159.365 804.865 159.203C815.725 157.66 826.603 156.113 837.536 156.113C991.743 156.113 1117 287.09 1117 448.936C1117 515.893 1095.51 577.549 1059.44 626.853Z" stroke="white" stroke-width="6"/>
<path d="M1058.8 627.665C1014.46 686.692 965.555 710.218 953.584 715.977C952.992 716.261 952.49 716.503 952.084 716.703C898.583 742.43 842.193 742.682 815.847 741.402L815.774 741.398H815.701C814.785 741.398 814.048 741.411 813.336 741.424C812.525 741.439 811.748 741.453 810.777 741.446L810.765 741.446C667.103 741.021 611.239 741.469 573.534 741.771C557.684 741.899 545.042 742 530.437 742C448.781 742 376.55 679.407 324.525 594.22C272.575 509.156 241.367 402.463 241.367 316.086C241.367 143.639 375.203 3 539.864 3C635.153 3 720.089 50.7533 774.77 123.526L774.774 123.532C779.579 129.896 787.352 141.62 797.415 158.424L799.438 161.803L801.449 159.698C803.098 159.465 804.746 159.227 806.395 158.989C816.768 157.489 827.134 155.991 837.551 155.991C991.754 155.991 1117 288.645 1117 450.145C1117 516.476 1095.81 577.594 1060.2 626.61C1060.1 626.646 1059.97 626.7 1059.82 626.779C1059.72 626.832 1059.59 626.908 1059.45 627.012C1059.31 627.114 1059.13 627.265 1058.95 627.475C1058.9 627.532 1058.85 627.596 1058.8 627.665Z" stroke="white" stroke-width="6"/>
<path d="M1050.71 613.434L1050.72 613.457L1050.73 613.48L1058.74 627.794C1013.84 686.865 965.597 710.417 954.867 715.655C954.523 715.823 954.218 715.972 953.952 716.103C900.292 741.901 843.714 742.944 817.338 741.65L817.265 741.647H817.191C816.274 741.647 815.534 741.66 814.821 741.673C814.007 741.687 813.227 741.701 812.253 741.694L812.241 741.694C662.628 741.261 608.026 741.461 570.113 741.6C556.166 741.651 544.478 741.694 531.149 741.694C449.257 741.694 376.85 679.43 324.71 594.273C272.642 509.233 241.367 402.237 241.367 314.566C241.367 142.891 375.523 3 540.647 3C636.179 3 720.444 51.3498 775.289 124.306L775.29 124.308C784.04 135.931 802.736 166.886 826.691 208.361C850.596 249.752 879.625 301.417 908.985 354.295C967.705 460.05 1027.73 570.612 1050.71 613.434Z" stroke="white" stroke-width="6"/>
</svg>
