<svg width="16" height="16" viewBox="0 0 16 16" fill="none" xmlns="http://www.w3.org/2000/svg">
<path d="M2.26699 1.33333C1.38449 1.33333 0.666992 2.04336 0.666992 2.91667V8.33333C0.666992 9.20664 1.38449 9.91667 2.26699 9.91667H3.06699V11.1042C3.06699 11.2551 3.15199 11.3911 3.28699 11.4579C3.42199 11.5247 3.58449 11.5099 3.70699 11.4208L5.73449 9.91667H8.80033C9.68283 9.91667 10.4003 9.20664 10.4003 8.33333V2.91667C10.4003 2.04336 9.68283 1.33333 8.80033 1.33333H2.26699ZM8.80033 10.7083H6.40033V11.5C6.40033 12.3733 7.11783 13.0833 8.00033 13.0833H10.9328L12.2937 14.5875C12.4137 14.6766 12.5762 14.6914 12.7137 14.6246C12.8512 14.5578 12.9337 14.4217 12.9337 14.2708V13.0833H13.7337C14.6162 13.0833 15.3337 12.3733 15.3337 11.5V6.75C15.3337 5.87669 14.6162 5.16667 13.7337 5.16667H11.2003V8.33333C11.2003 9.64453 10.1253 10.7083 8.80033 10.7083Z" fill="currentcolor"/>
</svg>
