<svg width="16" height="16" viewBox="0 0 16 16" fill="none" xmlns="http://www.w3.org/2000/svg">
<path d="M8.83301 4.17978V10.5001C8.83301 10.961 8.46061 11.3334 7.99967 11.3334C7.53874 11.3334 7.16634 10.961 7.16634 10.5001V4.17978L5.25488 6.09124C4.92936 6.41676 4.40072 6.41676 4.0752 6.09124C3.74967 5.76572 3.74967 5.23707 4.0752 4.91155L7.40853 1.57822C7.73405 1.2527 8.2627 1.2527 8.58822 1.57822L11.9215 4.91155C12.2471 5.23707 12.2471 5.76572 11.9215 6.09124C11.596 6.41676 11.0674 6.41676 10.7419 6.09124L8.83301 4.17978ZM2.99967 10.5001H6.33301C6.33301 11.4194 7.0804 12.1668 7.99967 12.1668C8.91895 12.1668 9.66634 11.4194 9.66634 10.5001H12.9997C13.9189 10.5001 14.6663 11.2475 14.6663 12.1668V13.0001C14.6663 13.9194 13.9189 14.6668 12.9997 14.6668H2.99967C2.0804 14.6668 1.33301 13.9194 1.33301 13.0001V12.1668C1.33301 11.2475 2.0804 10.5001 2.99967 10.5001ZM12.583 13.2084C12.9294 13.2084 13.208 12.9298 13.208 12.5834C13.208 12.2371 12.9294 11.9584 12.583 11.9584C12.2367 11.9584 11.958 12.2371 11.958 12.5834C11.958 12.9298 12.2367 13.2084 12.583 13.2084Z" fill="currentcolor"/>
</svg>
