<svg width="24" height="24" viewBox="0 0 24 24" fill="none" xmlns="http://www.w3.org/2000/svg">
<path d="M4 1.5C2.34531 1.5 1 2.84531 1 4.5V7.5C1 9.15469 2.34531 10.5 4 10.5H20C21.6547 10.5 23 9.15469 23 7.5V4.5C23 2.84531 21.6547 1.5 20 1.5H4ZM15.125 7.125C14.5016 7.125 14 6.62344 14 6C14 5.37656 14.5016 4.875 15.125 4.875C15.7484 4.875 16.25 5.37656 16.25 6C16.25 6.62344 15.7484 7.125 15.125 7.125ZM19.625 6C19.625 6.62344 19.1234 7.125 18.5 7.125C17.8766 7.125 17.375 6.62344 17.375 6C17.375 5.37656 17.8766 4.875 18.5 4.875C19.1234 4.875 19.625 5.37656 19.625 6ZM4 13.5C2.34531 13.5 1 14.8453 1 16.5V19.5C1 21.1547 2.34531 22.5 4 22.5H20C21.6547 22.5 23 21.1547 23 19.5V16.5C23 14.8453 21.6547 13.5 20 13.5H4ZM15.125 19.125C14.5016 19.125 14 18.6234 14 18C14 17.3766 14.5016 16.875 15.125 16.875C15.7484 16.875 16.25 17.3766 16.25 18C16.25 18.6234 15.7484 19.125 15.125 19.125ZM20 18C20 18.6234 19.4984 19.125 18.875 19.125C18.2516 19.125 17.75 18.6234 17.75 18C17.75 17.3766 18.2516 16.875 18.875 16.875C19.4984 16.875 20 17.3766 20 18Z" fill="#191A1A"/>
</svg>
