<svg width="25" height="24" viewBox="0 0 25 24" fill="none" xmlns="http://www.w3.org/2000/svg">
<path d="M11.9999 2.375C8.63327 2.375 5.93743 3.95625 3.97493 5.83828C2.02493 7.70312 0.720768 9.9375 0.104102 11.4715C-0.0333984 11.8109 -0.0333984 12.1891 0.104102 12.5285C0.720768 14.0625 2.02493 16.2969 3.97493 18.1617C5.93743 20.0437 8.63327 21.625 11.9999 21.625C15.3666 21.625 18.0624 20.0437 20.0249 18.1617C21.9749 16.2926 23.2791 14.0625 23.8999 12.5285C24.0374 12.1891 24.0374 11.8109 23.8999 11.4715C23.2791 9.9375 21.9749 7.70312 20.0249 5.83828C18.0624 3.95625 15.3666 2.375 11.9999 2.375ZM17.9999 12C17.9999 15.416 15.3124 18.1875 11.9999 18.1875C8.68743 18.1875 5.99993 15.416 5.99993 12C5.99993 8.58398 8.68743 5.8125 11.9999 5.8125C15.3124 5.8125 17.9999 8.58398 17.9999 12ZM11.9999 9.25C11.9999 10.7668 10.8041 12 9.33327 12C8.8541 12 8.4041 11.8711 8.0166 11.6391C8.00827 11.7594 7.99993 11.8754 7.99993 12C7.99993 14.2773 9.7916 16.125 11.9999 16.125C14.2083 16.125 15.9999 14.2773 15.9999 12C15.9999 9.72266 14.2083 7.875 11.9999 7.875C11.8833 7.875 11.7666 7.8793 11.6499 7.89219C11.8708 8.2918 11.9999 8.75586 11.9999 9.25Z" fill="currentcolor"/>
</svg>
