<svg width="16" height="16" viewBox="0 0 16 16" fill="none" xmlns="http://www.w3.org/2000/svg">
<path d="M14.4947 8.28947C15.9072 6.89168 15.9072 4.62801 14.4947 3.23022C13.2447 1.99324 11.2747 1.83244 9.83719 2.84923L9.79719 2.87645C9.43719 3.13126 9.35469 3.62606 9.61219 3.97983C9.86969 4.33361 10.3697 4.41772 10.7272 4.1629L10.7672 4.13569C11.5697 3.56915 12.6672 3.65822 13.3622 4.34845C14.1497 5.12775 14.1497 6.38947 13.3622 7.16876L10.5572 9.94949C9.76969 10.7288 8.49469 10.7288 7.70719 9.94949C7.00969 9.25926 6.91969 8.17319 7.49219 7.38152L7.51969 7.34194C7.77719 6.98569 7.69219 6.4909 7.33469 6.23856C6.97719 5.98621 6.47469 6.06785 6.21969 6.42163L6.19219 6.46121C5.16219 7.88126 5.32469 9.83074 6.57469 11.0677C7.98719 12.4655 10.2747 12.4655 11.6872 11.0677L14.4947 8.28947ZM1.50469 7.71056C0.0921875 9.10835 0.0921875 11.372 1.50469 12.7698C2.75469 14.0068 4.72469 14.1676 6.16219 13.1508L6.20219 13.1236C6.56219 12.8688 6.64469 12.374 6.38719 12.0202C6.12969 11.6664 5.62969 11.5823 5.27219 11.8371L5.23219 11.8643C4.42969 12.4309 3.33219 12.3418 2.63719 11.6516C1.84969 10.8698 1.84969 9.60809 2.63719 8.82879L5.44219 6.05053C6.22969 5.27124 7.50469 5.27124 8.29219 6.05053C8.98969 6.74077 9.07969 7.82684 8.50719 8.62098L8.47969 8.66056C8.22219 9.01681 8.30719 9.5116 8.66469 9.76395C9.02219 10.0163 9.52469 9.93465 9.77969 9.58087L9.80719 9.54129C10.8372 8.11876 10.6747 6.16928 9.42469 4.93231C8.01219 3.53452 5.72469 3.53452 4.31219 4.93231L1.50469 7.71056Z" fill="currentcolor"/>
</svg>
