<svg width="16" height="16" viewBox="0 0 16 16" fill="none" xmlns="http://www.w3.org/2000/svg">
<path d="M4.66667 1.33334C3.7474 1.33334 3 2.08074 3 3.00001V13C3 13.9193 3.7474 14.6667 4.66667 14.6667H11.3333C12.2526 14.6667 13 13.9193 13 13V5.50001H9.66667C9.20573 5.50001 8.83333 5.12761 8.83333 4.66668V1.33334H4.66667ZM9.66667 1.33334V4.66668H13L9.66667 1.33334ZM5.91667 8.00001H10.0833C10.3125 8.00001 10.5 8.18751 10.5 8.41668C10.5 8.64584 10.3125 8.83334 10.0833 8.83334H5.91667C5.6875 8.83334 5.5 8.64584 5.5 8.41668C5.5 8.18751 5.6875 8.00001 5.91667 8.00001ZM5.91667 9.66668H10.0833C10.3125 9.66668 10.5 9.85418 10.5 10.0833C10.5 10.3125 10.3125 10.5 10.0833 10.5H5.91667C5.6875 10.5 5.5 10.3125 5.5 10.0833C5.5 9.85418 5.6875 9.66668 5.91667 9.66668ZM5.91667 11.3333H10.0833C10.3125 11.3333 10.5 11.5208 10.5 11.75C10.5 11.9792 10.3125 12.1667 10.0833 12.1667H5.91667C5.6875 12.1667 5.5 11.9792 5.5 11.75C5.5 11.5208 5.6875 11.3333 5.91667 11.3333Z" fill="currentcolor"/>
</svg>
