<svg width="24" height="24" viewBox="0 0 24 24" fill="none" xmlns="http://www.w3.org/2000/svg">
<path d="M12 22C17.5234 22 22 17.5234 22 12C22 6.47656 17.5234 2 12 2C6.47656 2 2 6.47656 2 12C2 17.5234 6.47656 22 12 22ZM16.4141 10.1641L11.4141 15.1641C11.0469 15.5312 10.4531 15.5312 10.0898 15.1641L7.58984 12.6641C7.22266 12.2969 7.22266 11.7031 7.58984 11.3398C7.95703 10.9766 8.55078 10.9727 8.91406 11.3398L10.75 13.1758L15.0859 8.83594C15.4531 8.46875 16.0469 8.46875 16.4102 8.83594C16.7734 9.20312 16.7773 9.79687 16.4102 10.1602L16.4141 10.1641Z" fill="currentcolor"/>
</svg>
