<svg width="20" height="20" viewBox="0 0 20 20" fill="none" xmlns="http://www.w3.org/2000/svg">
<path d="M10.0003 18.3333C14.6032 18.3333 18.3337 14.6029 18.3337 10C18.3337 5.39714 14.6032 1.66667 10.0003 1.66667C5.39746 1.66667 1.66699 5.39714 1.66699 10C1.66699 14.6029 5.39746 18.3333 10.0003 18.3333ZM7.36361 7.36329C7.6696 7.0573 8.16439 7.0573 8.46712 7.36329L9.99707 8.89323L11.527 7.36329C11.833 7.0573 12.3278 7.0573 12.6305 7.36329C12.9333 7.66928 12.9365 8.16407 12.6305 8.4668L11.1006 9.99675L12.6305 11.5267C12.9365 11.8327 12.9365 12.3275 12.6305 12.6302C12.3245 12.9329 11.8298 12.9362 11.527 12.6302L9.99707 11.1003L8.46712 12.6302C8.16113 12.9362 7.66634 12.9362 7.36361 12.6302C7.06087 12.3242 7.05762 11.8294 7.36361 11.5267L8.89356 9.99675L7.36361 8.4668C7.05762 8.16081 7.05762 7.66602 7.36361 7.36329Z" fill="#81868C"/>
</svg>
