<svg width="147" height="32" viewBox="0 0 147 32" fill="none" xmlns="http://www.w3.org/2000/svg">
<path fill-rule="evenodd" clip-rule="evenodd" d="M85.106 11.8354C86.6 11.8354 87.7351 12.3199 88.5136 13.2924V11.9873H91.35V20.4699C91.35 22.3375 90.8571 23.7278 89.8737 24.6379C88.8903 25.5452 87.4544 26 85.5659 26C84.5702 26 83.6243 25.8802 82.732 25.6401C81.8373 25.4 81.0961 25.0523 80.5102 24.598C80.6288 24.3876 81.5792 22.6905 81.6984 22.4777C82.1303 22.8327 82.6788 23.1127 83.3436 23.3202C84.0089 23.5301 84.6712 23.6323 85.336 23.6323C86.3701 23.6323 87.1333 23.403 87.6238 22.9428C88.1167 22.4801 88.362 21.7823 88.362 20.8473V20.4125C87.5834 21.2603 86.4961 21.6825 85.106 21.6825C84.1605 21.6825 83.2958 21.4775 82.5099 21.0679C81.726 20.655 81.104 20.0774 80.6441 19.3323C80.1837 18.5902 79.9537 17.7302 79.9537 16.7577C79.9537 15.7852 80.1837 14.9272 80.6441 14.1826C81.104 13.4375 81.726 12.86 82.5099 12.4499C83.2958 12.0399 84.1605 11.8354 85.106 11.8354ZM66.0899 11.8325C67.0482 11.8325 67.9202 12.0502 68.7067 12.4875C69.4901 12.9224 70.1071 13.535 70.5518 14.3224C70.9994 15.1128 71.2244 16.0303 71.2244 17.0802C71.2244 18.1272 70.9994 19.0451 70.5518 19.835C70.1071 20.6249 69.4901 21.2351 68.7067 21.6728C67.9202 22.1077 67.0482 22.3254 66.0899 22.3254C64.7756 22.3254 63.7415 21.9154 62.9881 21.0924V25.8477H60V11.9825H62.8541V13.1576C63.5947 12.2752 64.6741 11.8325 66.0899 11.8325ZM129.961 11.8325C130.944 11.8325 131.837 12.0375 132.641 12.4475C133.447 12.86 134.087 13.4527 134.567 14.2304C135.045 15.0046 135.285 15.925 135.285 16.9852C134.522 17.1303 128.424 18.2976 127.663 18.4427C127.88 18.9477 128.222 19.3275 128.687 19.5803C129.152 19.8325 129.724 19.9577 130.401 19.9577C130.937 19.9577 131.412 19.8802 131.829 19.7225C132.244 19.5627 132.628 19.3153 132.987 18.9725C133.147 19.1449 134.418 20.5075 134.577 20.6779C133.606 21.7751 132.188 22.3253 130.325 22.3253C129.162 22.3253 128.134 22.1028 127.241 21.6553C126.346 21.2053 125.658 20.5825 125.173 19.7877C124.688 18.9925 124.445 18.0901 124.445 17.0801C124.445 16.0823 124.685 15.1829 125.163 14.3799C125.641 13.5802 126.298 12.9525 127.135 12.505C127.972 12.0575 128.914 11.8325 129.961 11.8325ZM122.539 8.12033V22.1754H119.685V21.0003C118.944 21.8852 117.869 22.3254 116.466 22.3254C115.495 22.3254 114.618 22.1101 113.832 21.6826C113.049 21.2526 112.431 20.6405 111.984 19.8452C111.537 19.05 111.314 18.1272 111.314 17.0802C111.314 16.0327 111.539 15.1099 111.984 14.3151C112.431 13.5199 113.049 12.9078 113.832 12.4778C114.618 12.0473 115.495 11.8325 116.466 11.8325C117.781 11.8325 118.81 12.245 119.551 13.0651V8.12033H122.539ZM108.242 18.6501C108.766 18.6501 109.206 18.8201 109.565 19.1527C109.921 19.4872 110.101 19.928 110.101 20.47C110.101 21.0003 109.921 21.4425 109.565 21.7955C109.206 22.15 108.766 22.3253 108.242 22.3253C107.719 22.3253 107.277 22.15 106.92 21.7955C106.564 21.4425 106.384 21.0003 106.384 20.47C106.384 19.928 106.564 19.4872 106.92 19.1527C107.277 18.8201 107.719 18.6501 108.242 18.6501ZM76.2021 8.11989V18.6322C76.2021 19.0627 76.3159 19.3929 76.5385 19.6276C76.761 19.8604 77.0767 19.9777 77.4864 19.9777C77.6405 19.9777 77.7946 19.9578 77.9567 19.9203C78.1157 19.8828 78.2398 19.8375 78.3279 19.7873C78.3432 20.0177 78.4496 21.8501 78.4624 22.08C77.9641 22.2426 77.4485 22.3249 76.9127 22.3249C75.7496 22.3249 74.842 22.0201 74.192 21.408C73.5401 20.7954 73.2165 19.9281 73.2165 18.8027V8.11989H76.2021ZM104.471 8V22.0551H101.617V20.88C100.876 21.7648 99.8039 22.2051 98.3985 22.2051C97.4304 22.2051 96.5504 21.9927 95.7664 21.5627C94.9805 21.1322 94.3665 20.5201 93.9183 19.7254C93.4712 18.9302 93.2486 18.0073 93.2486 16.9598C93.2486 15.9129 93.4712 14.99 93.9183 14.1948C94.3665 13.3996 94.9805 12.7874 95.7664 12.3575C96.5504 11.9275 97.4304 11.7146 98.3985 11.7146C99.7152 11.7146 100.742 12.1247 101.483 12.9452V8H104.471ZM138.559 11.9429L141.289 19.62L144.019 11.9429H147L142.902 22.1679H139.618L135.52 11.9429H138.559ZM116.982 14.2577C116.216 14.2577 115.584 14.5128 115.086 15.0251C114.588 15.535 114.34 16.2197 114.34 17.0802C114.34 17.9377 114.588 18.6224 115.086 19.1352C115.586 19.6451 116.216 19.9003 116.982 19.9003C117.738 19.9003 118.362 19.6451 118.86 19.1352C119.359 18.6224 119.606 17.9377 119.606 17.0802C119.606 16.2197 119.359 15.535 118.86 15.0251C118.362 14.5128 117.735 14.2577 116.982 14.2577ZM65.5743 14.2577C64.8081 14.2577 64.1788 14.5128 63.6883 15.0251C63.1954 15.535 62.9501 16.2197 62.9501 17.0802C62.9501 17.9377 63.1954 18.6224 63.6883 19.1352C64.1788 19.6451 64.8081 19.9003 65.5743 19.9003C66.3405 19.9003 66.9699 19.6451 67.4598 19.1352C67.9508 18.6224 68.1985 17.9377 68.1985 17.0802C68.1985 16.2197 67.9508 15.535 67.4598 15.0251C66.9699 14.5128 66.3405 14.2577 65.5743 14.2577ZM98.9165 14.1373C98.1508 14.1373 97.519 14.3925 97.0206 14.9048C96.5228 15.4152 96.2722 16.0999 96.2722 16.9598C96.2722 17.8179 96.5228 18.5026 97.0206 19.0154C97.519 19.5252 98.1508 19.7799 98.9165 19.7799C99.6699 19.7828 100.297 19.5252 100.792 19.0154C101.291 18.5026 101.541 17.8179 101.541 16.9598C101.541 16.0999 101.291 15.4152 100.792 14.9048C100.294 14.3925 99.6699 14.1373 98.9165 14.1373ZM85.6999 14.2576C84.9085 14.2576 84.2566 14.4874 83.7459 14.9501C83.2377 15.4098 82.9826 16.0126 82.9826 16.7577C82.9826 17.5023 83.2377 18.1052 83.7459 18.5678C84.2566 19.0275 84.9085 19.2578 85.6999 19.2578C86.4912 19.2578 87.1383 19.0275 87.644 18.5678C88.1497 18.1052 88.3999 17.5023 88.3999 16.7577C88.3999 16.0126 88.1497 15.4098 87.644 14.9501C87.1383 14.4874 86.4912 14.2576 85.6999 14.2576ZM129.961 14.0677C129.208 14.0677 128.593 14.3078 128.123 14.7875C127.65 15.2671 127.4 15.9304 127.375 16.7777C127.876 16.6803 131.89 15.9075 132.393 15.8101C132.251 15.2803 131.966 14.8576 131.531 14.5425C131.096 14.225 130.573 14.0677 129.961 14.0677Z" fill="#191A1A"/>
<path fill-rule="evenodd" clip-rule="evenodd" d="M47.4046 27.0087C49.0311 24.8725 50 22.2016 50 19.302C50 12.2952 44.354 6.61444 37.39 6.61444C36.8237 6.61444 36.2676 6.65561 35.7215 6.7288L35.721 6.72931C35.2709 6.00555 34.9148 5.46375 34.6966 5.18472C32.233 2.02743 28.4055 0 24.1056 0C17.7362 0 12.4019 4.45588 11.0077 10.4381C11.0077 10.4299 11.0001 10.4203 11.0021 10.4126C10.9021 10.4096 10.8031 10.4035 10.7026 10.4035C4.79233 10.4035 0 15.2253 0 21.1724C0 27.1185 4.79233 31.9403 10.7026 31.9403C14.6392 31.9403 19.9821 31.9871 23.6828 31.9871C25.8898 31.9871 27.0855 31.9612 36.1958 31.9871C36.2711 31.9876 36.3423 31.9851 36.4166 31.9851C37.6001 32.0405 40.1446 31.9962 42.5632 30.876C42.9512 30.692 45.3077 29.7004 47.4056 27.0102C47.4051 27.0097 47.4051 27.0092 47.4046 27.0087Z" fill="#FEBF40"/>
<path fill-rule="evenodd" clip-rule="evenodd" d="M47.405 27.0087C49.0315 24.8725 50.0004 22.2016 50.0004 19.302C50.0004 12.2952 44.3544 6.61444 37.3904 6.61444C36.8241 6.61444 36.268 6.65561 35.7219 6.7288L35.7214 6.72931C35.2713 6.00555 34.9157 5.46375 34.697 5.18472C32.2334 2.02743 28.4059 0 24.106 0C16.6758 0 10.6494 6.06146 10.6494 13.5394C10.6494 21.0179 16.251 31.9871 23.6832 31.9871C25.8902 31.9871 27.0859 31.9612 36.1962 31.9871C36.2715 31.9876 36.3427 31.9851 36.417 31.9851C37.6005 32.0405 40.145 31.9962 42.5636 30.876C42.9516 30.692 45.3081 29.7004 47.406 27.0102C47.4055 27.0097 47.4055 27.0092 47.405 27.0087Z" fill="#87CEF2"/>
<path fill-rule="evenodd" clip-rule="evenodd" d="M46.9291 26.2964C44.8828 22.6222 36.2786 7.20935 34.6965 5.18445C32.2329 2.02717 28.4049 0.000244141 24.1051 0.000244141C16.6754 0.000244141 10.6484 6.06119 10.6484 13.5392C10.6484 21.0176 16.25 31.9868 23.6823 31.9868C25.8897 31.9868 27.0849 31.9614 36.1953 31.9868C36.2705 31.9873 36.3418 31.9848 36.416 31.9848C37.5996 32.0407 40.1445 31.9965 42.5626 30.8763C42.9511 30.6918 45.3076 29.7002 47.405 27.01L46.9291 26.2964Z" fill="#2261AE"/>
</svg>
