<svg width="16" height="16" viewBox="0 0 16 16" fill="none" xmlns="http://www.w3.org/2000/svg">
<mask id="mask0_707_2633" style="mask-type:alpha" maskUnits="userSpaceOnUse" x="1" y="1" width="14" height="14">
<path fill-rule="evenodd" clip-rule="evenodd" d="M1.59961 3.09998C1.59961 2.27155 2.27118 1.59998 3.09961 1.59998H12.8996C13.728 1.59998 14.3996 2.27155 14.3996 3.09998V3.29997C14.3996 4.1284 13.728 4.79998 12.8996 4.79998H3.09961C2.27118 4.79998 1.59961 4.1284 1.59961 3.29998V3.09998ZM1.59961 7.89998C1.59961 7.07155 2.27118 6.39998 3.09961 6.39998H3.29961C4.12804 6.39998 4.79961 7.07155 4.79961 7.89998V12.9C4.79961 13.7284 4.12804 14.4 3.29961 14.4H3.09961C2.27118 14.4 1.59961 13.7284 1.59961 12.9V7.89998ZM7.89961 6.39998C7.07118 6.39998 6.39961 7.07155 6.39961 7.89998V12.9C6.39961 13.7284 7.07118 14.4 7.89961 14.4H12.8996C13.728 14.4 14.3996 13.7284 14.3996 12.9V7.89998C14.3996 7.07155 13.728 6.39998 12.8996 6.39998H7.89961Z" fill="white"/>
</mask>
<g mask="url(#mask0_707_2633)">
<rect width="16" height="16" fill="currentcolor"/>
</g>
</svg>
