<svg width="16" height="16" viewBox="0 0 16 16" fill="none" xmlns="http://www.w3.org/2000/svg">
<path d="M2.9257 7.18542L0.666992 11.0307V3.95238C0.666992 3.05938 1.39783 2.33334 2.29673 2.33334H5.28882C5.72172 2.33334 6.13679 2.50283 6.44237 2.8064L7.11718 3.47679C7.42276 3.78036 7.83783 3.94985 8.27073 3.94985H11.2603C12.1592 3.94985 12.89 4.6759 12.89 5.5689V6.37843H4.3339C3.7533 6.37843 3.21855 6.68453 2.9257 7.18289V7.18542ZM3.62853 7.59271C3.77622 7.34226 4.0436 7.19048 4.3339 7.19048H14.5197C14.8126 7.19048 15.08 7.34479 15.2251 7.59777C15.3703 7.85075 15.3703 8.15938 15.2226 8.40982L12.3705 13.267C12.2254 13.5149 11.958 13.6667 11.6677 13.6667H1.48186C1.18902 13.6667 0.921638 13.5124 0.77649 13.2594C0.631342 13.0064 0.631342 12.6978 0.779037 12.4473L3.63107 7.59018L3.62853 7.59271Z" fill="currentcolor"/>
</svg>
