<svg width="50" height="61" viewBox="0 0 50 61" fill="none" xmlns="http://www.w3.org/2000/svg">
<path d="M0.5 6C0.5 2.96243 2.96243 0.5 6 0.5H29.0458C30.4876 0.5 31.8718 1.06618 32.9003 2.07665L36.1496 5.26895L39.8545 8.90888C40.9071 9.94299 41.5 11.3567 41.5 12.8322V50C41.5 53.0376 39.0376 55.5 36 55.5H6C2.96243 55.5 0.5 53.0376 0.5 50V6Z" fill="#F6F7F9" stroke="#E6E9ED"/>
<mask id="mask0_2914_42814" style="mask-type:alpha" maskUnits="userSpaceOnUse" x="0" y="0" width="42" height="56">
<path d="M0.5 6C0.5 2.96243 2.96243 0.5 6 0.5H29.0458C30.4876 0.5 31.8718 1.06618 32.9003 2.07665L36.1496 5.26895L39.8545 8.90888C40.9071 9.94299 41.5 11.3567 41.5 12.8322V50C41.5 53.0376 39.0376 55.5 36 55.5H6C2.96243 55.5 0.5 53.0376 0.5 50V6Z" fill="#F6F7F9" stroke="#D7D8DA"/>
</mask>
<g mask="url(#mask0_2914_42814)">
<path d="M30 0H42V12H33C31.3431 12 30 10.6569 30 9V0Z" fill="#E6E9ED"/>
</g>
<circle cx="34" cy="45" r="16" fill="#2261AE"/>
<path d="M29.417 50.8327C27.3467 50.8327 25.667 49.153 25.667 47.0827C25.667 45.4473 26.7139 44.0566 28.1722 43.5436C28.1696 43.4733 28.167 43.403 28.167 43.3327C28.167 41.0306 30.0316 39.166 32.3337 39.166C33.8779 39.166 35.2243 40.0046 35.9456 41.2546C36.3415 40.9889 36.8206 40.8327 37.3337 40.8327C38.7139 40.8327 39.8337 41.9525 39.8337 43.3327C39.8337 43.6504 39.7738 43.9525 39.667 44.2337C41.1878 44.541 42.3337 45.8874 42.3337 47.4993C42.3337 49.3405 40.8415 50.8327 39.0003 50.8327H29.417ZM31.4743 45.1816C31.2295 45.4264 31.2295 45.8223 31.4743 46.0645C31.7191 46.3066 32.1149 46.3092 32.3571 46.0645L33.3727 45.0488V48.541C33.3727 48.8874 33.6514 49.166 33.9977 49.166C34.3441 49.166 34.6227 48.8874 34.6227 48.541V45.0488L35.6383 46.0645C35.8831 46.3092 36.279 46.3092 36.5212 46.0645C36.7633 45.8197 36.766 45.4238 36.5212 45.1816L34.4378 43.0983C34.193 42.8535 33.7972 42.8535 33.555 43.0983L31.4717 45.1816H31.4743Z" fill="white"/>
</svg>
