<svg width="16" height="16" viewBox="0 0 16 16" fill="none" xmlns="http://www.w3.org/2000/svg">
<path d="M7.49461 1.47069C7.80007 1.2806 8.19994 1.2806 8.50539 1.47069L8.99967 1.77536C9.16628 1.87692 9.36066 1.92639 9.55782 1.91598L10.1493 1.88212C10.5158 1.86129 10.8602 2.04878 11.024 2.35605L11.2906 2.85341C11.3794 3.02007 11.5238 3.15287 11.6988 3.2362L12.2347 3.48879C12.5624 3.64242 12.7623 3.96532 12.7401 4.30905L12.704 4.8637C12.6929 5.04858 12.7457 5.23346 12.854 5.3871L13.1816 5.85061C13.3843 6.13705 13.3843 6.51203 13.1816 6.79846L12.854 7.26458C12.7457 7.42082 12.6929 7.6031 12.704 7.78798L12.7401 8.34263C12.7623 8.68636 12.5624 9.00926 12.2347 9.16289L11.7043 9.41287C11.5266 9.4962 11.385 9.63161 11.2961 9.79566L11.0268 10.2982C10.8629 10.6055 10.5186 10.793 10.1521 10.7722L9.5606 10.7383C9.36344 10.7279 9.16628 10.7774 9.00245 10.8789L8.50817 11.1862C8.20271 11.3763 7.80284 11.3763 7.49739 11.1862L7.00033 10.8789C6.83372 10.7774 6.63934 10.7279 6.44218 10.7383L5.85071 10.7722C5.48417 10.793 5.13984 10.6055 4.976 10.2982L4.70942 9.80087C4.62056 9.63421 4.47617 9.50141 4.30122 9.41808L3.76529 9.16549C3.43762 9.01186 3.23768 8.68896 3.2599 8.34524L3.296 7.79059C3.30711 7.6057 3.25435 7.42082 3.14605 7.26718L2.82116 6.80107C2.61844 6.51463 2.61844 6.13965 2.82116 5.85322L3.14605 5.3897C3.25435 5.23346 3.30711 5.05118 3.296 4.8663L3.2599 4.31165C3.23768 3.96792 3.43762 3.64503 3.76529 3.49139L4.29567 3.24141C4.47339 3.15548 4.61779 3.02007 4.70664 2.85341L4.97322 2.35605C5.13706 2.04878 5.48139 1.86129 5.84793 1.88212L6.43941 1.91598C6.63656 1.92639 6.83372 1.87692 6.99756 1.77536L7.49461 1.47069ZM10.2215 6.32714C10.2215 5.77464 9.98744 5.24478 9.57083 4.8541C9.15422 4.46343 8.58918 4.24395 8 4.24395C7.41083 4.24395 6.84578 4.46343 6.42917 4.8541C6.01256 5.24478 5.77851 5.77464 5.77851 6.32714C5.77851 6.87964 6.01256 7.40951 6.42917 7.80018C6.84578 8.19086 7.41083 8.41034 8 8.41034C8.58918 8.41034 9.15422 8.19086 9.57083 7.80018C9.98744 7.40951 10.2215 6.87964 10.2215 6.32714ZM2.70453 12.8319L3.90135 10.1628C3.90691 10.1654 3.90969 10.168 3.91246 10.1732L4.17904 10.6706C4.50393 11.2747 5.17871 11.6419 5.9007 11.6028L6.49217 11.569C6.49772 11.569 6.50605 11.569 6.5116 11.5742L7.00589 11.8815C7.14751 11.9674 7.29746 12.0351 7.45296 12.082L6.40886 14.4073C6.34499 14.5506 6.20337 14.6469 6.03954 14.6599C5.8757 14.6729 5.71742 14.6026 5.62856 14.4724L4.73441 13.1887L3.17659 13.4048C3.01831 13.4256 2.86003 13.3657 2.76006 13.2486C2.6601 13.1314 2.64066 12.9699 2.70175 12.8319H2.70453ZM9.59114 14.4047L8.54704 12.082C8.70255 12.0351 8.8525 11.97 8.99412 11.8815L9.4884 11.5742C9.49395 11.5716 9.49951 11.569 9.50784 11.569L10.0993 11.6028C10.8213 11.6419 11.4961 11.2747 11.821 10.6706L12.0875 10.1732C12.0903 10.168 12.0931 10.1654 12.0986 10.1628L13.2983 12.8319C13.3593 12.9699 13.3371 13.1288 13.2399 13.2486C13.1427 13.3683 12.9817 13.4282 12.8234 13.4048L11.2656 13.1887L10.3714 14.4698C10.2826 14.6 10.1243 14.6703 9.96047 14.6573C9.79663 14.6443 9.65501 14.5453 9.59114 14.4047Z" fill="currentcolor"/>
</svg>
