<svg width="16" height="16" viewBox="0 0 16 16" fill="none" xmlns="http://www.w3.org/2000/svg">
<g id="Icon / Shield">
<path id="Subtract" fill-rule="evenodd" clip-rule="evenodd" d="M8.335 1.40797C8.23 1.35822 8.115 1.33203 8 1.33203C7.885 1.33203 7.77 1.35822 7.6675 1.40797L2.95751 3.50014C2.40751 3.74366 1.99751 4.31187 2.00001 4.99791C2.01251 7.59545 3.03251 12.348 7.34 14.5083C7.7575 14.7177 8.2425 14.7177 8.66 14.5083C12.9675 12.348 13.9875 7.59545 14 4.99791C14.0025 4.31187 13.5925 3.74366 13.0425 3.50014L8.335 1.40797ZM7.56 12.5554C4.68834 11.0432 4.00834 7.71643 4.00001 5.89815C3.99834 5.41792 4.27167 5.02017 4.63834 4.84971L7.77833 3.38519C7.84667 3.35036 7.92333 3.33203 8 3.33203V12.6654C7.84958 12.6654 7.69917 12.6287 7.56 12.5554Z" fill="currentcolor"/>
</g>
</svg>
