<svg width="6" height="11" viewBox="0 0 6 11" fill="none" xmlns="http://www.w3.org/2000/svg">
<path fill-rule="evenodd" clip-rule="evenodd" d="M0.125526 6.85355C0.292893 7.04882 0.56425 7.04882 0.731617 6.85355L3 4.20711L5.26838 6.85355C5.43575 7.04882 5.70711 7.04882 5.87447 6.85355C6.04184 6.65829 6.04184 6.34171 5.87447 6.14645L3.30305 3.14645C3.13568 2.95118 2.86432 2.95118 2.69695 3.14645L0.125526 6.14645C-0.0418419 6.34171 -0.0418419 6.65829 0.125526 6.85355Z" fill="currentcolor"/>
<g clip-path="url(#clip0_2392_68026)">
<path d="M2.5762 3.1957C2.81057 2.93529 3.1912 2.93529 3.42557 3.1957L5.82557 5.86237C5.99807 6.05404 6.0487 6.33945 5.95495 6.58945C5.8612 6.83945 5.6437 7.00195 5.39995 7.00195L0.599945 6.99987C0.35807 6.99987 0.138695 6.83737 0.0449452 6.58737C-0.0488048 6.33737 0.00369517 6.05195 0.17432 5.86029L2.57432 3.19362L2.5762 3.1957Z" fill="currentcolor"/>
</g>
<defs>
<clipPath id="clip0_2392_68026">
<rect width="6" height="10.6667" fill="white" transform="matrix(1 0 0 -1 0 11)"/>
</clipPath>
</defs>
</svg>
