<svg width="16" height="16" viewBox="0 0 16 16" fill="none" xmlns="http://www.w3.org/2000/svg">
<g id="Icon / Globe">
<path id="Vector" d="M2.83561 6.35807L3.0804 6.78516C3.29655 7.16276 3.65072 7.44141 4.06999 7.5612L5.5778 7.99089C6.02572 8.11849 6.33301 8.52734 6.33301 8.99349V10.0326C6.33301 10.319 6.49447 10.5794 6.74967 10.707C7.00488 10.8346 7.16634 11.0951 7.16634 11.3815V12.3971C7.16634 12.8034 7.55436 13.0977 7.94499 12.9857C8.36426 12.8659 8.68978 12.5299 8.79655 12.1055L8.86947 11.8138C8.97884 11.3737 9.2653 10.9961 9.65853 10.7721L9.86947 10.6523C10.2601 10.431 10.4997 10.0143 10.4997 9.56641V9.35026C10.4997 9.01953 10.3669 8.70182 10.1325 8.46745L10.0309 8.36589C9.79655 8.13151 9.47884 7.9987 9.14811 7.9987H8.02572C7.73665 7.9987 7.4502 7.92318 7.19759 7.77995L6.29915 7.26693C6.18717 7.20182 6.10124 7.09766 6.05957 6.97526C5.97624 6.72526 6.08822 6.45443 6.3252 6.33724L6.47884 6.25911C6.65072 6.17318 6.85124 6.15755 7.03353 6.22005L7.6377 6.42057C7.85124 6.49089 8.08561 6.41016 8.20801 6.22526C8.3304 6.04297 8.31738 5.80078 8.17676 5.63151L7.82259 5.20703C7.56217 4.89453 7.56478 4.4388 7.8304 4.13151L8.23926 3.65495C8.46843 3.38672 8.50488 3.00391 8.3304 2.69922L8.2679 2.58984C8.17676 2.58464 8.08822 2.58203 7.99707 2.58203C5.5804 2.58203 3.53092 4.16797 2.83561 6.35807ZM13.4163 7.9987C13.4163 7.04036 13.1663 6.13932 12.7288 5.35547L12.0622 5.6237C11.6533 5.78776 11.4424 6.24349 11.5804 6.66016L12.0205 7.98047C12.1117 8.2513 12.333 8.45703 12.609 8.52474L13.3669 8.71484C13.3981 8.48047 13.4137 8.24089 13.4137 7.9987H13.4163ZM14.6663 7.9987C14.6663 11.681 11.682 14.6654 7.99967 14.6654C4.31738 14.6654 1.33301 11.681 1.33301 7.9987C1.33301 4.31641 4.31738 1.33203 7.99967 1.33203C11.682 1.33203 14.6663 4.31641 14.6663 7.9987Z" fill="currentcolor"/>
</g>
</svg>
