<svg width="24" height="24" viewBox="0 0 24 24" fill="none" xmlns="http://www.w3.org/2000/svg">
<path d="M11.9993 3C12.554 3 13.0658 3.30134 13.347 3.79554L21.7851 18.5812C22.0703 19.0795 22.0703 19.6942 21.7929 20.1924C21.5156 20.6906 20.996 21 20.4374 21H3.56117C3.00254 21 2.48297 20.6906 2.2056 20.1924C1.92824 19.6942 1.93215 19.0754 2.21342 18.5812L10.6515 3.79554C10.9328 3.30134 11.4445 3 11.9993 3ZM11.9993 8.14286C11.4797 8.14286 11.0617 8.57277 11.0617 9.10714V13.6071C11.0617 14.1415 11.4797 14.5714 11.9993 14.5714C12.5188 14.5714 12.9368 14.1415 12.9368 13.6071V9.10714C12.9368 8.57277 12.5188 8.14286 11.9993 8.14286ZM13.2494 17.1429C13.2494 16.4317 12.6907 15.8571 11.9993 15.8571C11.3078 15.8571 10.7492 16.4317 10.7492 17.1429C10.7492 17.854 11.3078 18.4286 11.9993 18.4286C12.6907 18.4286 13.2494 17.854 13.2494 17.1429Z" fill="currentcolor"/>
</svg>
