<svg width="16" height="16" viewBox="0 0 16 16" fill="none" xmlns="http://www.w3.org/2000/svg">
<path d="M6.00033 1.33334C5.33783 1.33334 4.80033 1.86524 4.80033 2.52084V4.89584C4.80033 5.55144 5.33783 6.08334 6.00033 6.08334H7.20033V7.08334H1.46699C1.02449 7.08334 0.666992 7.43712 0.666992 7.87501C0.666992 8.3129 1.02449 8.66668 1.46699 8.66668H3.20033V9.91668H2.00033C1.33783 9.91668 0.800326 10.4486 0.800326 11.1042V13.4792C0.800326 14.1348 1.33783 14.6667 2.00033 14.6667H6.00033C6.66283 14.6667 7.20033 14.1348 7.20033 13.4792V11.1042C7.20033 10.4486 6.66283 9.91668 6.00033 9.91668H4.80033V8.66668H11.2003V9.91668H10.0003C9.33783 9.91668 8.80033 10.4486 8.80033 11.1042V13.4792C8.80033 14.1348 9.33783 14.6667 10.0003 14.6667H14.0003C14.6628 14.6667 15.2003 14.1348 15.2003 13.4792V11.1042C15.2003 10.4486 14.6628 9.91668 14.0003 9.91668H12.8003V8.66668H14.5337C14.9762 8.66668 15.3337 8.3129 15.3337 7.87501C15.3337 7.43712 14.9762 7.08334 14.5337 7.08334H8.80033V6.08334H10.0003C10.6628 6.08334 11.2003 5.55144 11.2003 4.89584V2.52084C11.2003 1.86524 10.6628 1.33334 10.0003 1.33334H6.00033Z" fill="currentcolor"/>
</svg>
