<svg width="16" height="16" viewBox="0 0 16 16" fill="none" xmlns="http://www.w3.org/2000/svg">
<path d="M7.99998 14.6654C11.6823 14.6654 14.6666 11.681 14.6666 7.9987C14.6666 4.31641 11.6823 1.33203 7.99998 1.33203C4.31769 1.33203 1.33331 4.31641 1.33331 7.9987C1.33331 11.681 4.31769 14.6654 7.99998 14.6654ZM5.75519 5.63672C5.96092 5.05599 6.513 4.66536 7.13019 4.66536H8.64842C9.55727 4.66536 10.2916 5.40234 10.2916 6.30859C10.2916 6.89714 9.97654 7.44141 9.46613 7.73568L8.62498 8.21745C8.61977 8.55599 8.34113 8.83203 7.99998 8.83203C7.65363 8.83203 7.37498 8.55339 7.37498 8.20703V7.85547C7.37498 7.63151 7.49477 7.42578 7.69008 7.3138L8.84373 6.65234C8.96613 6.58203 9.04165 6.45182 9.04165 6.3112C9.04165 6.09245 8.86456 5.91797 8.64842 5.91797H7.13019C7.04165 5.91797 6.96352 5.97266 6.93488 6.05599L6.92446 6.08724C6.80988 6.41276 6.4505 6.58203 6.12758 6.46745C5.80467 6.35286 5.63279 5.99349 5.74738 5.67057L5.75779 5.63932L5.75519 5.63672ZM8.83331 10.4987C8.83331 10.9596 8.46092 11.332 7.99998 11.332C7.53904 11.332 7.16665 10.9596 7.16665 10.4987C7.16665 10.0378 7.53904 9.66537 7.99998 9.66537C8.46092 9.66537 8.83331 10.0378 8.83331 10.4987Z" fill="#81868C"/>
</svg>
