<svg width="16" height="16" viewBox="0 0 16 16" fill="none" xmlns="http://www.w3.org/2000/svg">
<path d="M7.99992 14.6654C11.6822 14.6654 14.6666 11.681 14.6666 7.9987C14.6666 4.31641 11.6822 1.33203 7.99992 1.33203C4.31763 1.33203 1.33325 4.31641 1.33325 7.9987C1.33325 11.681 4.31763 14.6654 7.99992 14.6654ZM10.9426 6.77474L7.60929 10.1081C7.3645 10.3529 6.96867 10.3529 6.72648 10.1081L5.05981 8.44141C4.81502 8.19661 4.81502 7.80078 5.05981 7.55859C5.30461 7.31641 5.70044 7.3138 5.94263 7.55859L7.16659 8.78255L10.0572 5.88932C10.302 5.64453 10.6978 5.64453 10.94 5.88932C11.1822 6.13411 11.1848 6.52995 10.94 6.77214L10.9426 6.77474Z" fill="currentcolor"/>
</svg>
