<svg width="20" height="20" viewBox="0 0 20 20" fill="none" xmlns="http://www.w3.org/2000/svg">
<path d="M17.1781 2.20686C16.4577 1.48655 15.2934 1.48655 14.5731 2.20686L13.5831 3.19359L16.8031 6.41361L17.7931 5.42359C18.5134 4.70328 18.5134 3.53894 17.7931 2.81863L17.1781 2.20686ZM7.33709 9.44287C7.13645 9.6435 6.98186 9.89019 6.89306 10.1632L5.91949 13.0839C5.8241 13.3668 5.89975 13.6792 6.11025 13.893C6.32076 14.1068 6.63322 14.1792 6.91937 14.0838L9.84009 13.1102C10.1098 13.0181 10.3565 12.8668 10.5604 12.6662L16.0631 7.16024L12.8397 3.93692L7.33709 9.44287ZM4.82422 3.59815C3.081 3.59815 1.66669 5.01246 1.66669 6.75568V15.1758C1.66669 16.919 3.081 18.3333 4.82422 18.3333H13.2443C14.9875 18.3333 16.4018 16.919 16.4018 15.1758V12.0182C16.4018 11.4361 15.9315 10.9657 15.3493 10.9657C14.7672 10.9657 14.2968 11.4361 14.2968 12.0182V15.1758C14.2968 15.7579 13.8265 16.2283 13.2443 16.2283H4.82422C4.24205 16.2283 3.77171 15.7579 3.77171 15.1758V6.75568C3.77171 6.17351 4.24205 5.70317 4.82422 5.70317H7.98175C8.56392 5.70317 9.03426 5.23283 9.03426 4.65066C9.03426 4.06849 8.56392 3.59815 7.98175 3.59815H4.82422Z" fill="currentcolor"/>
</svg>
