<svg width="16" height="16" viewBox="0 0 16 16" fill="none" xmlns="http://www.w3.org/2000/svg">
<path d="M7.2 2.91666C7.2 3.25559 7.0925 3.56731 6.91 3.8246L7.64 5.37083C7.885 5.31888 8.14 5.29166 8.4 5.29166C9.3025 5.29166 10.125 5.6207 10.7575 6.1625L12.81 4.67317C12.805 4.61627 12.8 4.55937 12.8 4.49999C12.8 3.62669 13.5175 2.91666 14.4 2.91666C15.2825 2.91666 16 3.62669 16 4.49999C16 5.3733 15.2825 6.08333 14.4 6.08333C14.17 6.08333 13.9525 6.03632 13.755 5.94973L11.705 7.43906C11.895 7.872 12 8.35195 12 8.85416C12 9.2401 11.9375 9.61367 11.8225 9.96249L13.6225 11.0312C13.8525 10.9051 14.1175 10.8333 14.4 10.8333C15.2825 10.8333 16 11.5434 16 12.4167C16 13.29 15.2825 14 14.4 14C13.5175 14 12.8 13.29 12.8 12.4167V12.3894L10.9975 11.3182C10.3425 11.9961 9.42 12.4167 8.4 12.4167C6.6875 12.4167 5.2525 11.2316 4.89 9.64583H2.985C2.7075 10.1184 2.1925 10.4375 1.6 10.4375C0.7175 10.4375 0 9.72747 0 8.85416C0 7.98085 0.7175 7.27083 1.6 7.27083C2.1925 7.27083 2.71 7.58997 2.985 8.0625H4.8875C5.075 7.24609 5.545 6.53854 6.19 6.04127L5.46 4.49505C4.6425 4.4233 4 3.74544 4 2.91666C4 2.04335 4.7175 1.33333 5.6 1.33333C6.4825 1.33333 7.2 2.04335 7.2 2.91666ZM8.4 10.0417C9.0625 10.0417 9.6 9.50976 9.6 8.85416C9.6 8.19856 9.0625 7.66666 8.4 7.66666C7.7375 7.66666 7.2 8.19856 7.2 8.85416C7.2 9.50976 7.7375 10.0417 8.4 10.0417Z" fill="currentcolor"/>
</svg>
