<svg width="20" height="20" viewBox="0 0 20 20" fill="none" xmlns="http://www.w3.org/2000/svg">
<path d="M10 14.0124C11.1496 14.0124 12.0834 14.9807 12.0834 16.1729C12.0834 17.365 11.1496 18.3334 10 18.3334C8.85047 18.3334 7.91669 17.365 7.91669 16.1729C7.91669 14.9807 8.85047 14.0124 10 14.0124ZM10 7.83953C11.1496 7.83953 12.0834 8.80789 12.0834 10C12.0834 11.1922 11.1496 12.1605 10 12.1605C8.85047 12.1605 7.91669 11.1922 7.91669 10C7.91669 8.80789 8.85047 7.83953 10 7.83953ZM12.0834 3.82718C12.0834 5.01931 11.1496 5.98767 10 5.98767C8.85047 5.98767 7.91669 5.01931 7.91669 3.82718C7.91669 2.63505 8.85047 1.66669 10 1.66669C11.1496 1.66669 12.0834 2.63505 12.0834 3.82718Z" fill="currentcolor"/>
</svg>
