<svg width="20" height="20" viewBox="0 0 20 20" fill="none" xmlns="http://www.w3.org/2000/svg">
<path d="M7.19205 2.24283L6.96437 2.70832H3.92865C3.36894 2.70832 2.91675 3.17382 2.91675 3.74999C2.91675 4.32616 3.36894 4.79166 3.92865 4.79166H16.0715C16.6312 4.79166 17.0834 4.32616 17.0834 3.74999C17.0834 3.17382 16.6312 2.70832 16.0715 2.70832H13.0358L12.8081 2.24283C12.6374 1.88801 12.2864 1.66666 11.9037 1.66666H8.09644C7.71381 1.66666 7.3628 1.88801 7.19205 2.24283ZM16.0715 5.83332H3.92865L4.59904 16.8685C4.64964 17.692 5.3137 18.3333 6.11373 18.3333H13.8864C14.6865 18.3333 15.3505 17.692 15.4011 16.8685L16.0715 5.83332Z" fill="currentcolor"/>
</svg>
