<svg width="20" height="19" viewBox="0 0 20 19" fill="none" xmlns="http://www.w3.org/2000/svg">
<path d="M18.575 10C19.362 10 20.0104 9.35882 19.8986 8.57979C19.7133 7.28775 19.276 6.03976 18.6067 4.90844C17.6947 3.36668 16.3852 2.09822 14.8152 1.23565C13.2452 0.373085 11.4723 -0.0519208 9.68191 0.00506042C7.89147 0.0620417 6.14921 0.598918 4.63724 1.55957C3.12528 2.52022 1.89911 3.86938 1.08692 5.46602C0.274729 7.06265 -0.0936682 8.84815 0.0202366 10.6359C0.134141 12.4236 0.726166 14.1479 1.73443 15.6285C2.47427 16.715 3.41829 17.641 4.5092 18.3577C5.16696 18.7898 6.02286 18.4752 6.35719 17.7628C6.69153 17.0503 6.37333 16.212 5.74117 15.7432C5.1012 15.2687 4.54232 14.6885 4.09012 14.0244C3.36921 12.9657 2.94591 11.7329 2.86447 10.4546C2.78303 9.17642 3.04643 7.8998 3.62715 6.7582C4.20786 5.61661 5.08457 4.65196 6.16563 3.96509C7.24669 3.27823 8.4924 2.89436 9.77256 2.85362C11.0527 2.81288 12.3203 3.11676 13.4429 3.73349C14.5654 4.35023 15.5017 5.25718 16.1538 6.35954C16.5629 7.05101 16.8507 7.80344 17.0085 8.5844C17.1643 9.35582 17.788 10 18.575 10Z" fill="currentcolor"/>
</svg>
