<svg width="24" height="24" viewBox="0 0 24 24" fill="none" xmlns="http://www.w3.org/2000/svg">
<path d="M21.3711 8.50781C21.4961 8.84766 21.3906 9.22656 21.1211 9.46875L19.4297 11.0078C19.4727 11.332 19.4961 11.6641 19.4961 12C19.4961 12.3359 19.4727 12.668 19.4297 12.9922L21.1211 14.5312C21.3906 14.7734 21.4961 15.1523 21.3711 15.4922C21.1992 15.957 20.9922 16.4023 20.7539 16.832L20.5703 17.1484C20.3125 17.5781 20.0234 17.9844 19.707 18.3672C19.4766 18.6484 19.0938 18.7422 18.75 18.6328L16.5742 17.9414C16.0508 18.3438 15.4727 18.6797 14.8555 18.9336L14.3672 21.1641C14.2891 21.5195 14.0156 21.8008 13.6563 21.8594C13.1172 21.9492 12.5625 21.9961 11.9961 21.9961C11.4297 21.9961 10.875 21.9492 10.3359 21.8594C9.97657 21.8008 9.70313 21.5195 9.62501 21.1641L9.13673 18.9336C8.51954 18.6797 7.94142 18.3438 7.41798 17.9414L5.2461 18.6367C4.90235 18.7461 4.51954 18.6484 4.28907 18.3711C3.97267 17.9883 3.6836 17.582 3.42579 17.1523L3.2422 16.8359C3.00392 16.4062 2.79689 15.9609 2.62501 15.4961C2.50001 15.1562 2.60548 14.7773 2.87501 14.5352L4.56642 12.9961C4.52345 12.668 4.50001 12.3359 4.50001 12C4.50001 11.6641 4.52345 11.332 4.56642 11.0078L2.87501 9.46875C2.60548 9.22656 2.50001 8.84766 2.62501 8.50781C2.79689 8.04297 3.00392 7.59766 3.2422 7.16797L3.42579 6.85156C3.6836 6.42188 3.97267 6.01562 4.28907 5.63281C4.51954 5.35156 4.90235 5.25781 5.2461 5.36719L7.42189 6.05859C7.94532 5.65625 8.52345 5.32031 9.14064 5.06641L9.62892 2.83594C9.70704 2.48047 9.98048 2.19922 10.3399 2.14062C10.8789 2.04687 11.4336 2 12 2C12.5664 2 13.1211 2.04688 13.6602 2.13672C14.0195 2.19531 14.293 2.47656 14.3711 2.83203L14.8594 5.0625C15.4766 5.31641 16.0547 5.65234 16.5781 6.05469L18.7539 5.36328C19.0977 5.25391 19.4805 5.35156 19.7109 5.62891C20.0274 6.01172 20.3164 6.41797 20.5742 6.84766L20.7578 7.16406C20.9961 7.59375 21.2031 8.03906 21.375 8.50391L21.3711 8.50781ZM12 15.125C13.7266 15.125 15.125 13.7266 15.125 12C15.125 10.2734 13.7266 8.875 12 8.875C10.2734 8.875 8.87501 10.2734 8.87501 12C8.87501 13.7266 10.2734 15.125 12 15.125Z" fill="currentcolor"/>
</svg>
