<svg width="24" height="16" viewBox="0 0 24 16" fill="none" xmlns="http://www.w3.org/2000/svg">
<path fill-rule="evenodd" clip-rule="evenodd" d="M24 9.65102C24 11.1008 23.5349 12.4363 22.7542 13.5044L22.7547 13.5051C21.8 14.7803 20.7338 15.2922 20.4669 15.4203C20.4523 15.4274 20.44 15.4332 20.4303 15.438C19.2694 15.9981 18.0481 16.0202 17.48 15.9925C17.4638 15.9925 17.4479 15.9928 17.432 15.9931C17.4129 15.9934 17.3937 15.9937 17.374 15.9935C14.1772 15.9841 13.0107 15.9884 12.2005 15.9915C11.9025 15.9926 11.6527 15.9935 11.3678 15.9935C10.4933 15.9935 9.42783 15.9879 8.34589 15.9821C7.23001 15.9762 6.09661 15.9702 5.13723 15.9702C2.30032 15.9702 0 13.5593 0 10.5862C0 7.61266 2.30032 5.20175 5.13723 5.20175C5.16936 5.20175 5.20117 5.2031 5.23302 5.20445C5.24899 5.20513 5.26498 5.20581 5.28101 5.20632C5.28047 5.20845 5.28136 5.21089 5.28226 5.21334C5.28297 5.21528 5.28368 5.21723 5.28368 5.21903C5.9529 2.22794 8.51339 0 11.5707 0C13.6346 0 15.4718 1.01372 16.6543 2.59236C16.7591 2.73188 16.93 3.00278 17.1461 3.36465L17.1463 3.3644C17.4084 3.32781 17.6754 3.30722 17.9472 3.30722C21.2899 3.30722 24 6.14761 24 9.65102ZM11.291 4.26369C11.6814 3.9121 12.3155 3.9121 12.7059 4.26369H12.709L16.7072 7.86397C17.0976 8.21556 17.0976 8.78655 16.7072 9.13814C16.3167 9.48973 15.6826 9.48973 15.2922 9.13814L12.9995 7.0736V12.0999C12.9995 12.5978 12.5529 13 12 13C11.4471 13 11.0005 12.5978 11.0005 12.0999V7.0736L8.70779 9.13814C8.31735 9.48973 7.68327 9.48973 7.29283 9.13814C6.90239 8.78655 6.90239 8.21556 7.29283 7.86397L11.291 4.26369Z" fill="#EAAA43"/>
</svg>
