<svg width="16" height="16" viewBox="0 0 16 16" fill="none" xmlns="http://www.w3.org/2000/svg">
<path d="M7.99967 2.99999C9.11783 2.99999 10.0235 3.93229 10.0235 5.08333V6.33333H5.97587V5.08333C5.97587 3.93229 6.88152 2.99999 7.99967 2.99999ZM4.35682 5.08333V6.33333H3.95206C3.05905 6.33333 2.33301 7.08072 2.33301 8V13C2.33301 13.9193 3.05905 14.6667 3.95206 14.6667H12.0473C12.9403 14.6667 13.6663 13.9193 13.6663 13V8C13.6663 7.08072 12.9403 6.33333 12.0473 6.33333H11.6425V5.08333C11.6425 3.01302 10.0108 1.33333 7.99967 1.33333C5.98851 1.33333 4.35682 3.01302 4.35682 5.08333ZM8.8092 9.66666V11.3333C8.8092 11.7943 8.44744 12.1667 7.99967 12.1667C7.55191 12.1667 7.19015 11.7943 7.19015 11.3333V9.66666C7.19015 9.20572 7.55191 8.83333 7.99967 8.83333C8.44744 8.83333 8.8092 9.20572 8.8092 9.66666Z" fill="currentcolor"/>
</svg>
