<svg width="24" height="24" viewBox="0 0 24 24" fill="none" xmlns="http://www.w3.org/2000/svg">
<path d="M12 22C17.5234 22 22 17.5234 22 12C22 6.47656 17.5234 2 12 2C6.47656 2 2 6.47656 2 12C2 17.5234 6.47656 22 12 22ZM8.83594 8.83594C9.20312 8.46875 9.79687 8.46875 10.1602 8.83594L11.9961 10.6719L13.832 8.83594C14.1992 8.46875 14.793 8.46875 15.1562 8.83594C15.5195 9.20312 15.5234 9.79687 15.1562 10.1602L13.3203 11.9961L15.1562 13.832C15.5234 14.1992 15.5234 14.793 15.1562 15.1562C14.7891 15.5195 14.1953 15.5234 13.832 15.1562L11.9961 13.3203L10.1602 15.1562C9.79297 15.5234 9.19922 15.5234 8.83594 15.1562C8.47266 14.7891 8.46875 14.1953 8.83594 13.832L10.6719 11.9961L8.83594 10.1602C8.46875 9.79297 8.46875 9.19922 8.83594 8.83594Z" fill="currentcolor"/>
</svg>
