<svg width="16" height="16" viewBox="0 0 16 16" fill="none" xmlns="http://www.w3.org/2000/svg">
<path d="M12.1667 6.74992C12.1667 7.94523 11.7786 9.0494 11.125 9.94523L14.4219 13.2447C14.7474 13.5702 14.7474 14.0989 14.4219 14.4244C14.0964 14.7499 13.5677 14.7499 13.2422 14.4244L9.94531 11.1249C9.04948 11.7812 7.94531 12.1666 6.75 12.1666C3.75781 12.1666 1.33333 9.74211 1.33333 6.74992C1.33333 3.75773 3.75781 1.33325 6.75 1.33325C9.74219 1.33325 12.1667 3.75773 12.1667 6.74992ZM6.75 10.4999C8.82031 10.4999 10.5 8.82023 10.5 6.74992C10.5 4.67961 8.82031 2.99992 6.75 2.99992C4.67969 2.99992 3 4.67961 3 6.74992C3 8.82023 4.67969 10.4999 6.75 10.4999Z" fill="currentcolor"/>
</svg>
