<svg width="24" height="24" viewBox="0 0 24 24" fill="none" xmlns="http://www.w3.org/2000/svg">
<path fill-rule="evenodd" clip-rule="evenodd" d="M12 22C17.5234 22 22 17.5234 22 12C22 6.47656 17.5234 2 12 2C6.47656 2 2 6.47656 2 12C2 17.5234 6.47656 22 12 22ZM11.0618 16.0357C11.0618 16.5701 11.4798 17 11.9994 17C12.5189 17 12.9369 16.5701 12.9369 16.0357V11.5357C12.9369 11.0013 12.5189 10.5714 11.9994 10.5714C11.4798 10.5714 11.0618 11.0013 11.0618 11.5357V16.0357ZM11.9994 9.28571C12.6908 9.28571 13.2494 8.71116 13.2494 8C13.2494 7.28884 12.6908 6.71428 11.9994 6.71428C11.3079 6.71428 10.7493 7.28884 10.7493 8C10.7493 8.71116 11.3079 9.28571 11.9994 9.28571Z" fill="currentcolor"/>
</svg>
