<svg width="16" height="16" viewBox="0 0 16 16" fill="none" xmlns="http://www.w3.org/2000/svg">
<path fill-rule="evenodd" clip-rule="evenodd" d="M7.99992 1.33463C11.6822 1.33463 14.6666 4.31901 14.6666 8.0013C14.6666 11.6836 11.6822 14.668 7.99992 14.668C4.31763 14.668 1.33325 11.6836 1.33325 8.0013C1.33325 4.31901 4.31763 1.33463 7.99992 1.33463ZM7.37445 5.31083C7.37445 4.95458 7.65311 4.66797 7.99949 4.66797C8.34587 4.66797 8.62453 4.95458 8.62453 5.31083V8.31083C8.62453 8.66708 8.34587 8.95368 7.99949 8.95368C7.65311 8.95368 7.37445 8.66708 7.37445 8.31083V5.31083ZM7.99949 9.81083C8.46046 9.81083 8.83288 10.1939 8.83288 10.668C8.83288 11.1421 8.46046 11.5251 7.99949 11.5251C7.53852 11.5251 7.1661 11.1421 7.1661 10.668C7.1661 10.1939 7.53852 9.81083 7.99949 9.81083Z" fill="#D74E3A"/>
</svg>
