<svg width="20" height="20" viewBox="0 0 20 20" fill="none" xmlns="http://www.w3.org/2000/svg">
<path d="M5.79311 5.79321C8.1067 3.47962 11.8449 3.46846 14.1734 5.75602L12.6409 7.28477C12.3842 7.54143 12.3098 7.92454 12.4475 8.25931C12.5851 8.59407 12.9124 8.80981 13.2732 8.80981H17.7181H18.0343C18.529 8.80981 18.927 8.41181 18.927 7.91711V3.15602C18.927 2.79522 18.7113 2.46789 18.3765 2.33027C18.0418 2.19264 17.6586 2.26703 17.402 2.52368L15.8546 4.07104C12.5963 0.853584 7.3479 0.864743 4.10813 4.10823C3.20055 5.01582 2.5459 6.08334 2.14418 7.22526C1.92473 7.84643 2.25205 8.5234 2.8695 8.74286C3.48696 8.96231 4.16764 8.63499 4.3871 8.01753C4.67351 7.20666 5.13846 6.44414 5.79311 5.79321ZM1.07294 12.0831V12.3657V12.3918V16.8441C1.07294 17.2049 1.28867 17.5323 1.62344 17.6699C1.9582 17.8075 2.34132 17.7331 2.59797 17.4765L4.14533 15.9291C7.4037 19.1466 12.6521 19.1354 15.8918 15.8919C16.7994 14.9843 17.4578 13.9168 17.8595 12.7786C18.0789 12.1575 17.7516 11.4805 17.1342 11.261C16.5167 11.0416 15.836 11.3689 15.6166 11.9863C15.3302 12.7972 14.8652 13.5597 14.2106 14.2107C11.897 16.5243 8.15878 16.5354 5.83031 14.2479L7.35906 12.7154C7.61571 12.4587 7.69011 12.0756 7.55248 11.7409C7.41486 11.4061 7.08753 11.1904 6.72673 11.1904H2.27809H2.25205H1.96564C1.47093 11.1904 1.07294 11.5884 1.07294 12.0831Z" fill="currentcolor"/>
</svg>
