<svg width="20" height="20" viewBox="0 0 20 20" fill="none" xmlns="http://www.w3.org/2000/svg">
<path d="M10 18.3334C14.6029 18.3334 18.3334 14.6029 18.3334 10.0001C18.3334 5.39722 14.6029 1.66675 10 1.66675C5.39716 1.66675 1.66669 5.39722 1.66669 10.0001C1.66669 14.6029 5.39716 18.3334 10 18.3334ZM9.21877 12.8647V10.7813H7.13544C6.70249 10.7813 6.35419 10.433 6.35419 10.0001C6.35419 9.56714 6.70249 9.21883 7.13544 9.21883H9.21877V7.1355C9.21877 6.70256 9.56708 6.35425 10 6.35425C10.433 6.35425 10.7813 6.70256 10.7813 7.1355V9.21883H12.8646C13.2975 9.21883 13.6459 9.56714 13.6459 10.0001C13.6459 10.433 13.2975 10.7813 12.8646 10.7813H10.7813V12.8647C10.7813 13.2976 10.433 13.6459 10 13.6459C9.56708 13.6459 9.21877 13.2976 9.21877 12.8647Z" fill="currentcolor"/>
</svg>
