<svg width="32" height="32" viewBox="0 0 32 32" fill="none" xmlns="http://www.w3.org/2000/svg">
<path d="M16.0001 29.3327C23.3647 29.3327 29.3334 23.3639 29.3334 15.9993C29.3334 8.63477 23.3647 2.66602 16.0001 2.66602C8.6355 2.66602 2.66675 8.63477 2.66675 15.9993C2.66675 23.3639 8.6355 29.3327 16.0001 29.3327ZM11.7813 11.7806C12.2709 11.291 13.0626 11.291 13.547 11.7806L15.9949 14.2285L18.4428 11.7806C18.9324 11.291 19.724 11.291 20.2084 11.7806C20.6928 12.2702 20.698 13.0618 20.2084 13.5462L17.7605 15.9941L20.2084 18.4421C20.698 18.9316 20.698 19.7233 20.2084 20.2077C19.7188 20.6921 18.9272 20.6973 18.4428 20.2077L15.9949 17.7598L13.547 20.2077C13.0574 20.6973 12.2657 20.6973 11.7813 20.2077C11.297 19.7181 11.2917 18.9264 11.7813 18.4421L14.2292 15.9941L11.7813 13.5462C11.2917 13.0566 11.2917 12.265 11.7813 11.7806Z" fill="currentcolor"/>
</svg>
