<svg width="24" height="24" viewBox="0 0 24 24" fill="none" xmlns="http://www.w3.org/2000/svg">
<path d="M21.3456 9.83165H19.8073C19.6387 9.20003 19.3647 8.58958 19.0276 8.0001L20.1235 6.92645C20.3975 6.65272 20.3975 6.23171 20.1235 5.95795L18.0371 3.87369C17.7631 3.59996 17.3417 3.59996 17.0677 3.87369L15.9718 4.96847C15.3817 4.63159 14.7705 4.379 14.1384 4.21057V2.67376C14.1384 2.31588 13.8434 2 13.464 2H10.5349C10.1557 2 9.86047 2.31573 9.86047 2.67376V4.2317C9.22822 4.40014 8.61716 4.65272 8.0271 4.9896L6.95238 3.89482C6.67838 3.64223 6.25695 3.64223 5.98292 3.89482L3.89659 5.97908C3.62259 6.25281 3.62259 6.67382 3.89659 6.94758L4.99246 8.04236C4.65525 8.63184 4.4024 9.24244 4.23381 9.87391L2.67443 9.87376C2.3162 9.87376 2 10.1685 2 10.5475V13.4948C2 13.8737 2.31604 14.1686 2.67443 14.1686H4.23392C4.31815 14.4633 4.40253 14.7371 4.50792 15.0106L7.60575 11.9369C7.2265 11.3684 7.12109 10.6526 7.35291 9.97903C7.45831 9.66329 7.64793 9.34741 7.87975 9.11583C8.21696 8.77895 8.68059 8.52635 9.16524 8.48421L13.6118 7.89473C13.696 7.87373 13.8014 7.87373 13.9068 7.87373C14.4969 7.87373 15.0659 8.10532 15.4873 8.52633C15.972 9.0105 16.2038 9.70524 16.1196 10.4L15.5295 14.8421C15.4031 15.6842 14.8341 16.379 14.0332 16.6527C13.8014 16.7368 13.5486 16.758 13.3167 16.758C12.8741 16.758 12.4527 16.6317 12.0945 16.4001L8.9965 19.4947C9.2705 19.6 9.56552 19.7053 9.86055 19.7894V21.3262C9.86055 21.7051 10.1556 22 10.535 22H13.4852C13.8645 22 14.1597 21.7053 14.1597 21.3262L14.1595 19.7894C14.7918 19.621 15.4028 19.3472 15.9929 19.0105L17.0676 20.1053C17.3416 20.379 17.763 20.379 18.0371 20.1053L20.1234 18.021C20.3974 17.7473 20.3974 17.3263 20.1234 17.0525L19.0275 15.9578C19.3647 15.3683 19.6176 14.7577 19.7862 14.1262H21.3245C21.7038 14.1262 21.9989 13.8315 21.9989 13.4524V10.5263C22.02 10.1472 21.7249 9.83153 21.3455 9.83153L21.3456 9.83165Z" fill="currentcolor"/>
<path d="M12.9051 14.9475C13.0525 15.0949 13.2839 15.1581 13.4735 15.0738C13.6841 15.0106 13.8104 14.8212 13.8524 14.6106L14.4419 10.1685C14.4629 10 14.3997 9.83159 14.2734 9.70531C14.1471 9.57902 13.9787 9.51587 13.8103 9.53687L9.36814 10.1263C9.24184 10.1473 9.13655 10.1895 9.0524 10.2948C8.98926 10.3579 8.94711 10.4211 8.92611 10.5054C8.86296 10.716 8.90511 10.9264 9.0524 11.0738L9.9156 11.937L4.21031 17.6844C4.04187 17.8739 4.04187 18.1476 4.21031 18.337L5.66299 19.7897C5.83143 19.9581 6.12615 19.9581 6.31559 19.7897L12.0419 14.0634L12.9051 14.9475Z" fill="currentcolor"/>
</svg>
