<svg width="24" height="24" viewBox="0 0 24 24" fill="none" xmlns="http://www.w3.org/2000/svg">
<path d="M12 22C6.47656 22 2 17.5234 2 12C2 6.47656 6.47656 2 12 2C17.5234 2 22 6.47656 22 12C22 17.5234 17.5234 22 12 22ZM11.0625 6.6875V12C11.0625 12.3125 11.2188 12.6055 11.4805 12.7812L15.2305 15.2812C15.6602 15.5703 16.2422 15.4531 16.5312 15.0195C16.8203 14.5859 16.7031 14.0078 16.2695 13.7188L12.9375 11.5V6.6875C12.9375 6.16797 12.5195 5.75 12 5.75C11.4805 5.75 11.0625 6.16797 11.0625 6.6875Z" fill="currentcolor"/>
</svg>
