<svg width="24" height="24" viewBox="0 0 24 24" fill="none" xmlns="http://www.w3.org/2000/svg" x="0px" y="0px">
<g clip-path="url(#clip0_466_7609)">
<path d="M0 15.2143C0 18.4085 2.41875 21 5.4 21H19.2C21.8513 21 24 18.6978 24 15.8571C24 13.3701 22.35 11.2929 20.16 10.8188C20.3137 10.3888 20.4 9.91875 20.4 9.42857C20.4 7.29911 18.7875 5.57143 16.8 5.57143C16.0613 5.57143 15.3713 5.8125 14.8013 6.22232C13.7625 4.29375 11.8238 3 9.6 3C6.285 3 3.6 5.87679 3.6 9.42857C3.6 9.53705 3.60375 9.64554 3.6075 9.75402C1.5075 10.5455 0 12.6911 0 15.2143Z" fill="currentcolor"/>
</g>
<defs>
<clipPath id="clip0_466_7609">
<rect width="24" height="24" fill="currentcolor"/>
</clipPath>
</defs>
</svg>
