<svg width="20" height="20" viewBox="0 0 20 20" fill="none" xmlns="http://www.w3.org/2000/svg">
<circle cx="10" cy="10" r="8.75" fill="white" stroke="#E6E9ED" stroke-width="1.5"/>
<path d="M9.99984 18.3333C14.6027 18.3333 18.3332 14.6028 18.3332 9.99996C18.3332 5.3971 14.6027 1.66663 9.99984 1.66663C5.39697 1.66663 1.6665 5.3971 1.6665 9.99996C1.6665 14.6028 5.39697 18.3333 9.99984 18.3333ZM7.36312 7.36324C7.66911 7.05725 8.1639 7.05725 8.46663 7.36324L9.99658 8.89319L11.5265 7.36324C11.8325 7.05725 12.3273 7.05725 12.63 7.36324C12.9328 7.66923 12.936 8.16402 12.63 8.46676L11.1001 9.9967L12.63 11.5267C12.936 11.8326 12.936 12.3274 12.63 12.6302C12.3241 12.9329 11.8293 12.9362 11.5265 12.6302L9.99658 11.1002L8.46663 12.6302C8.16064 12.9362 7.66585 12.9362 7.36312 12.6302C7.06038 12.3242 7.05713 11.8294 7.36312 11.5267L8.89307 9.9967L7.36312 8.46676C7.05713 8.16077 7.05713 7.66598 7.36312 7.36324V7.36324Z" fill="#81868C"/>
</svg>
