<?xml version="1.0" encoding="UTF-8"?>
<svg width="1440px" height="674px" viewBox="0 0 1440 674" version="1.1" xmlns="http://www.w3.org/2000/svg" xmlns:xlink="http://www.w3.org/1999/xlink">
    <!-- Generator: Sketch 55.2 (78181) - https://sketchapp.com -->
    <title>Group 3</title>
    <desc>Created with Sketch.</desc>
    <g id="Page-1" stroke="none" stroke-width="1" fill="none" fill-rule="evenodd">
        <g id="main">
            <g id="Group-3">
                <polygon id="Path" fill="#F4F9FB" fill-rule="nonzero" points="0 0 1440 0 1440 384.654 0 548"></polygon>
                <g id="Group-2" transform="translate(840.000250, 99.999915)">
                    <path d="M116.41075,27.7900846 C135.19475,25.4420846 154.76075,36.6790846 166.71975,56.1330846 C167.55975,60.8850846 168.34975,64.7990846 168.89975,67.7610846 C169.51975,71.5390846 170.37975,75.2740846 171.47975,78.9420846 C172.50975,82.2040846 173.83975,85.3660846 175.44975,88.3900846 L186.62975,94.5950846 C186.62975,108.515085 178.68975,119.808085 168.45975,122.547085 C161.74975,124.336085 150.79175,123.330085 146.09575,115.671085 C144.16275,111.975085 143.64575,107.701085 144.64275,103.651085 C143.46875,100.409085 142.23875,97.1110846 141.00875,93.8680846 C139.18075,95.4610846 137.05075,96.6680846 134.74475,97.4180846 C132.43975,98.1670846 130.00675,98.4430846 127.59175,98.2290846 C124.60675,97.3280846 121.85375,95.7850846 119.52675,93.7090846 C117.19975,91.6330846 115.35375,89.0730846 114.11875,86.2100846 C105.49475,71.0740846 98.68275,54.9740846 93.82575,38.2440846 C100.21375,32.6930846 108.04575,29.0680846 116.41075,27.7900846 Z" id="Path" fill="#FFEFD9" fill-rule="nonzero"></path>
                    <polygon id="Path" fill="#F9D6A7" fill-rule="nonzero" points="141.11975 93.5890846 151.96475 82.7440846 144.75375 103.372085"></polygon>
                    <path d="M155.87775,66.8680846 C158.62375,69.5960846 161.51975,72.1710846 164.53975,74.5830846 C169.73975,78.7190846 172.36975,80.8440846 173.48975,80.1730846 C174.60975,79.5020846 176.78975,77.0980846 171.74975,36.2330846 C170.40975,25.0520846 169.23975,17.1700846 163.25975,13.8710846 C160.62975,12.6620846 157.68175,12.3670846 154.87175,13.0330846 C152.85675,8.47408456 149.39975,4.70308456 145.03275,2.29908456 C133.85175,-3.29101544 117.47275,1.40508456 105.17375,15.3810846 C103.57675,14.2130846 101.61175,13.6600846 99.63975,13.8240846 C97.66775,13.9890846 95.82175,14.8590846 94.43975,16.2750846 C93.42775,17.4500846 92.77275,18.8920846 92.55475,20.4270846 C92.33675,21.9630846 92.56475,23.5300846 93.20975,24.9400846 C91.13575,25.1150846 89.17375,25.9590846 87.61975,27.3440846 C86.50775,28.3780846 85.63875,29.6480846 85.07775,31.0590846 C84.51775,32.4710846 84.27775,33.9900846 84.37775,35.5060846 C84.50275,38.3660846 85.65375,41.0850846 87.61975,43.1650846 C89.27775,44.5690846 91.20075,45.6240846 93.27575,46.2680846 C95.35075,46.9110846 97.53375,47.1300846 99.69475,46.9100846 C120.26775,46.9100846 128.76475,38.4130846 135.24975,42.9410846 C141.73475,47.4690846 140.22475,58.2590846 145.03275,58.4820846 C145.86675,58.5150846 146.68975,58.2800846 147.38075,57.8120846 C147.61875,56.0210846 148.48675,54.3740846 149.82875,53.1660846 C151.17075,51.9570846 152.89875,51.2650846 154.70375,51.2150846 C155.72675,51.3890846 156.70475,51.7670846 157.57975,52.3250846 C158.45475,52.8840846 159.20875,53.6120846 159.79675,54.4660846 C160.38975,55.3210846 160.79975,56.2840846 161.00975,57.3010846 C161.21975,58.3170846 161.21975,59.3650846 161.01975,60.3830846 C160.75975,61.8040846 160.15975,63.1390846 159.26175,64.2700846 C158.36475,65.4010846 157.20275,66.2930846 155.87775,66.8680846 Z" id="Path" fill="#0A2965" fill-rule="nonzero"></path>
                    <path d="M86.61475,29.5810846 L85.99975,29.5810846 C86.12875,29.3450846 86.27875,29.1200846 86.44675,28.9100846 C86.46575,29.1410846 86.52275,29.3680846 86.61475,29.5810846 Z" id="Path" fill="#0B2851" fill-rule="nonzero" opacity="0.29"></path>
                    <path d="M164.87975,40.6490846 C163.53975,29.8030846 162.41975,21.5850846 156.38075,18.2870846 C153.77775,17.0780846 150.84375,16.7820846 148.05175,17.4490846 C146.00075,12.8950846 142.52875,9.12908456 138.15675,6.71508456 C134.24275,4.99408456 129.98275,4.21008456 125.71275,4.42308456 C121.44275,4.63708456 117.28175,5.84208456 113.55875,7.94508456 C124.29275,0.174084562 136.31175,-1.89401544 144.92075,2.35508456 C149.28775,4.75808456 152.74475,8.52908456 154.75975,13.0880846 C157.57075,12.4220846 160.51975,12.7170846 163.14975,13.9270846 C169.12975,17.0010846 170.29975,25.1070846 171.63975,36.2880846 C176.66975,77.1540846 174.88975,79.7810846 173.37975,80.2280846 C171.86975,80.6760846 170.91975,79.4460846 168.17975,77.3210846 C167.73975,65.0460846 166.63975,52.8040846 164.87975,40.6490846 Z" id="Path" fill="#102349" fill-rule="nonzero"></path>
                    <path d="M86.61675,476.472085 C90.16375,480.041085 92.54175,484.603085 93.43675,489.554085 C94.10775,496.318085 87.84675,498.275085 82.81575,501.126085 C73.25575,506.716085 71.01975,515.773085 57.54675,521.139085 C49.49675,524.270085 43.51475,524.773085 39.93775,520.692085 C39.43675,519.322085 39.29775,517.847085 39.53275,516.408085 C39.76775,514.968085 40.36875,513.614085 41.27875,512.474085 C41.27875,512.474085 56.59675,497.436085 56.93175,496.989085 C59.23375,493.762085 61.34375,490.402085 63.24875,486.926085 C63.24875,486.255085 60.95675,471.832085 60.95675,471.832085 L80.74675,464.006085 L86.61675,476.472085 Z" id="Path" fill="#173A6D" fill-rule="nonzero"></path>
                    <polygon id="Path" fill="#0A2647" fill-rule="nonzero" points="85.05075 473.510085 80.52275 463.895085 84.93875 473.230085"></polygon>
                    <path d="M88.90975,479.100085 C89.94275,481.507085 90.83875,483.970085 91.59375,486.479085 C92.26475,493.299085 86.00275,495.256085 80.97175,498.107085 C71.41175,503.697085 69.17575,512.754085 55.70275,518.064085 C48.37975,520.971085 42.78975,521.586085 38.93175,518.623085 C38.96475,519.346085 39.15475,520.052085 39.49075,520.692085 C43.06875,524.773085 49.05075,524.270085 57.10075,521.139085 C70.57375,515.549085 72.80975,506.660085 82.36975,501.126085 C87.34475,498.275085 93.54975,496.318085 92.99075,489.554085 C92.07475,485.911085 90.70375,482.399085 88.90975,479.100085 Z" id="Path" fill="#0A2965" fill-rule="nonzero"></path>
                    <path d="M110.32075,532.825085 C111.66675,537.593085 111.45175,542.667085 109.70575,547.304085 C107.98775,549.617085 106.40175,552.025085 104.95375,554.516085 C102.71775,558.988085 101.59975,566.814085 93.32575,570.392085 C85.79675,573.793085 77.24375,574.154085 69.45475,571.398085 C68.23275,570.923085 67.12875,570.188085 66.21775,569.244085 C65.30775,568.300085 64.61375,567.170085 64.18275,565.931085 C63.75175,564.693085 63.59575,563.375085 63.72375,562.070085 C63.85275,560.765085 64.26275,559.504085 64.92675,558.373085 C66.79775,555.171085 69.07175,552.221085 71.69075,549.596085 L82.87175,535.788085 L84.77275,521.532085 L110.71175,520.135085 L110.32075,532.825085 Z" id="Path" fill="#173A6D" fill-rule="nonzero"></path>
                    <path d="M88.74175,572.124085 C87.49375,572.471085 86.22375,572.733085 84.94075,572.907085 C83.54375,572.991085 82.14375,572.991085 80.74775,572.907085 L79.68575,572.907085 C78.39975,572.907085 77.11375,572.907085 75.88375,572.628085 L75.43675,572.628085 C74.13775,572.413085 72.84975,572.133085 71.57975,571.789085 L70.62875,571.510085 L68.67275,570.727085 C67.34475,570.058085 66.20475,569.069085 65.35575,567.849085 C64.50675,566.629085 63.97475,565.216085 63.80875,563.739085 C69.39875,570.168085 84.66075,571.789085 93.94075,566.981085 C102.21475,563.404085 103.27675,555.801085 105.51275,551.105085 C106.97775,548.612085 108.58275,546.204085 110.32075,543.893085 C110.65575,542.887085 110.93575,542.048085 111.15875,541.266085 C111.08775,542.190085 110.93775,543.106085 110.71175,544.005085 C110.71175,544.955085 110.15275,545.906085 109.76175,547.080085 C109.38875,547.713085 108.99775,548.272085 108.58775,548.757085 C107.86075,549.819085 107.13375,550.713085 106.29575,551.999085 C105.45675,553.285085 105.45675,553.397085 105.00975,554.291085 C104.56275,555.186085 103.94775,556.751085 103.38875,558.149085 C102.68175,560.753085 101.42275,563.175085 99.69575,565.249085 C97.96875,567.323085 95.81575,569.001085 93.38175,570.168085 C92.21275,570.753085 90.99775,571.239085 89.74775,571.621085 L88.74175,572.124085 Z" id="Path" fill="#0A2965" fill-rule="nonzero"></path>
                    <path d="M110.04175,531.371085 C108.11175,531.082085 106.14075,531.456085 104.45075,532.434085 C101.15275,534.502085 100.87375,538.695085 98.86075,538.695085 C97.85475,538.695085 97.79875,537.465085 95.89775,535.788085 C94.03075,534.064085 91.61575,533.054085 89.07775,532.937085 C86.77575,533.083085 84.61575,534.103085 83.03975,535.788085 L84.94075,521.532085 L110.87975,520.135085 L110.04175,531.371085 Z" id="Path" fill="#87CEF2" fill-rule="nonzero"></path>
                    <path d="M63.02575,486.927085 C64.04675,486.507085 65.19175,486.507085 66.21175,486.927085 C68.22475,488.101085 67.55375,491.120085 68.72775,491.511085 C69.90175,491.902085 72.08175,486.312085 77.95175,481.616085 C80.60475,479.619085 83.42975,477.860085 86.39275,476.361085 L80.52375,463.895085 L60.73375,471.721085 L63.02575,486.927085 Z" id="Path" fill="#87CEF2" fill-rule="nonzero"></path>
                    <path d="M97.40775,543.556085 C97.40775,543.556085 83.20775,535.059085 78.40075,541.208085" id="Path" stroke="#0A2965" stroke-width="0.25"></path>
                    <path d="M93.71675,548.701085 C93.71675,548.701085 80.29975,540.651085 75.43575,545.291085" id="Path" stroke="#0A2965" stroke-width="0.25"></path>
                    <path d="M89.46775,553.508085 C89.46775,553.508085 79.23775,545.178085 73.53575,548.532085" id="Path" stroke="#0A2965" stroke-width="0.25"></path>
                    <path d="M64.92575,497.216085 C64.92575,497.216085 60.84575,490.172085 59.05675,492.687085" id="Path" stroke="#0A2965" stroke-width="0.25"></path>
                    <path d="M59.95075,500.398085 C59.95075,500.398085 58.04975,494.416085 56.70875,496.988085" id="Path" stroke="#0A2965" stroke-width="0.25"></path>
                    <path d="M56.70775,503.305085 C56.70775,503.305085 55.14275,497.715085 53.63275,499.671085" id="Path" stroke="#0A2965" stroke-width="0.25"></path>
                    <path d="M137.82275,268.233085 C112.05075,283.607085 90.63975,297.303085 74.53975,307.925085 C35.91075,333.417085 24.22675,343.535085 24.22675,356.896085 C24.22675,365.058085 28.58675,376.407085 38.14675,379.761085 C42.78775,380.934085 47.67175,380.710085 52.18675,379.119085 C56.70175,377.528085 60.64575,374.640085 63.52675,370.816085 L177.56975,325.087085 C181.29975,318.796085 183.13975,311.564085 182.86975,304.255085 C182.59975,296.945085 180.22975,289.869085 176.03975,283.871085 C171.85975,277.874085 166.02975,273.210085 159.26175,270.436085 C152.49375,267.663085 145.06975,266.898085 137.87875,268.233085 L137.82275,268.233085 Z" id="Path" fill="#2261AE" fill-rule="nonzero"></path>
                    <path d="M61.17875,364.557085 L172.47975,293.951085 C173.66975,289.996085 174.28975,285.893085 174.32975,281.764085 C175.16975,282.826085 176.05975,283.888085 176.78975,285.006085 C180.56975,290.979085 182.63975,297.877085 182.76975,304.946085 C182.89975,312.015085 181.07975,318.983085 177.50975,325.089085 L63.47075,370.818085 C62.68875,368.750085 61.96175,366.625085 61.17875,364.557085 Z" id="Path" fill="#1D589F" fill-rule="nonzero"></path>
                    <path d="M63.47175,370.817085 C65.48475,376.408085 68.22375,383.452085 71.35375,392.284085 C72.91975,396.589085 77.67175,409.950085 80.96975,420.236085 C86.12175,436.079085 90.43175,452.183085 93.88375,468.481085 C88.98175,473.668085 82.98475,477.698085 76.32975,480.277085 C71.31875,482.254085 66.00475,483.350085 60.62075,483.519085 C40.15975,434.436085 26.40775,396.533085 21.48775,378.812085 C18.75475,370.957085 18.61775,362.432085 21.09675,354.494085 C21.92475,351.121085 23.43275,347.954085 25.52775,345.185085 C27.62375,342.417085 30.26275,340.105085 33.28375,338.393085 C37.92875,336.224085 43.22575,335.904085 48.09775,337.499085 C58.10475,340.853085 64.98075,354.438085 63.47175,370.817085 Z" id="Path" fill="#2261AE" fill-rule="nonzero"></path>
                    <path d="M81.02475,420.125085 L76.38475,480.165085 C79.06275,479.283085 81.63175,478.102085 84.04375,476.644085 C87.76575,474.436085 91.10775,471.642085 93.93875,468.370085 C91.75875,457.972085 89.07475,447.071085 85.83275,435.778085 C84.26775,430.411085 82.64675,425.212085 81.02475,420.125085 Z" id="Path" fill="#1D589F" fill-rule="nonzero"></path>
                    <path d="M171.52975,296.855085 C154.16475,315.490085 136.85375,334.665085 119.59775,354.380085 C98.74575,378.027085 87.62075,391.444085 91.36675,404.693085 C92.43175,408.379085 94.37775,411.750085 97.03675,414.516085 C99.69575,417.282085 102.98775,419.360085 106.62875,420.570085 C111.66875,421.788085 116.95375,421.529085 121.85075,419.824085 C126.74775,418.119085 131.05075,415.040085 134.24475,410.954085 C153.75475,399.214085 169.23975,388.593085 179.91975,380.934085 C223.51975,349.628085 229.94975,337.050085 232.79975,329.223085 C237.27975,316.263085 237.91975,302.288085 234.64975,288.973085 L171.52975,296.855085 Z" id="Path" fill="#2261AE" fill-rule="nonzero"></path>
                    <path d="M97.29475,381.492085 C93.64175,387.289085 90.78375,393.550085 88.79775,400.108085 C88.01375,402.644085 87.36075,405.219085 86.84075,407.822085 C84.77275,418.165085 81.25075,462.832085 77.89575,523.487085 C80.68775,526.723085 84.11175,529.354085 87.95675,531.219085 C91.80175,533.084085 95.98775,534.144085 100.25775,534.332085 C107.24075,534.523085 114.08075,532.335085 119.65575,528.127085 C124.57575,489.106085 129.51375,449.974085 134.47075,410.729085 C137.88675,405.792085 139.30175,399.741085 138.42875,393.801085 C137.55675,387.860085 134.46275,382.472085 129.77075,378.724085 C125.07975,374.977085 119.14075,373.149085 113.15375,373.611085 C107.16775,374.073085 101.57975,376.790085 97.51875,381.212085 L97.29475,381.492085 Z" id="Path" fill="#2261AE" fill-rule="nonzero"></path>
                    <path d="M115.90875,167.660085 C115.90875,176.717085 115.90875,186.108085 116.52375,195.612085 C116.52375,201.202085 117.02675,206.793085 117.36275,212.383085 C117.53975,215.698085 118.69675,218.886085 120.68675,221.543085 C122.67675,224.201085 125.41175,226.207085 128.54275,227.309085 C131.96475,228.326085 135.63875,228.067085 138.88575,226.582085 C141.89775,225.050085 144.34375,222.599085 145.87175,219.584085 C147.39875,216.569085 147.92775,213.147085 147.38275,209.811085 L151.35175,177.611085 C139.19475,175.979085 127.32375,172.667085 116.07675,167.772085 L115.90875,167.660085 Z" id="Path" fill="#FFEFD9" fill-rule="nonzero"></path>
                    <path d="M124.23975,270.077085 C135.34775,285.109085 151.04575,296.117085 168.95975,301.439085 C180.88975,304.592085 193.33975,305.226085 205.52975,303.301085 C217.70975,301.376085 229.35975,296.934085 239.73975,290.259085 C238.83975,275.891085 237.43975,260.630085 235.42975,244.753085 C233.41975,228.877085 230.95975,213.503085 228.27975,199.192085 C235.18975,197.594085 241.87975,195.193085 248.22975,192.036085 C251.55975,190.387085 254.76975,188.520085 257.84975,186.446085 C253.93975,176.159085 246.66975,157.376085 237.66975,136.747085 C234.92975,129.820085 230.96975,123.439085 225.97975,117.908085 C221.55975,113.199085 216.49975,109.134085 210.94975,105.833085 C203.32975,100.999085 195.13975,97.1310846 186.56975,94.3170846 C186.65975,100.045085 185.06975,105.674085 181.98975,110.504085 C178.90975,115.335085 174.47975,119.153085 169.23975,121.486085 C166.20975,122.686085 162.91975,123.110085 159.67875,122.720085 C156.43775,122.329085 153.34575,121.137085 150.68175,119.250085 C148.55775,117.224085 146.92075,114.743085 145.89375,111.993085 C144.86775,109.242085 144.47875,106.295085 144.75675,103.373085 C143.58275,100.131085 142.35275,96.8320846 141.12275,93.5900846 C138.68375,96.0980846 135.43575,97.6630846 131.95475,98.0060846 C128.76575,98.2600846 125.58275,97.4540846 122.89775,95.7140846 C120.61275,96.9650846 118.56875,98.6120846 116.86075,100.578085 C113.36675,104.882085 111.26175,110.145085 110.82275,115.672085 C109.56775,128.547085 109.32475,141.500085 110.09575,154.413085 C110.09575,159.053085 110.09575,166.265085 110.09575,175.265085 C112.74775,177.750085 115.88975,179.654085 119.31975,180.855085 C122.33675,181.904085 125.51875,182.397085 128.71175,182.309085 C128.26475,200.030085 127.59375,218.143085 126.58775,236.647085 C125.80475,247.865085 125.02275,259.009085 124.23975,270.077085 Z" id="Path" fill="#B9DFFE" fill-rule="nonzero"></path>
                    <path d="M178.34975,179.681085 C177.95975,177.385085 177.31975,175.136085 176.44975,172.972085 C174.38975,167.232085 170.81975,162.154085 166.10975,158.270085 C160.51975,153.853085 155.71375,153.406085 152.07975,156.760085 C151.65875,157.200085 151.26675,157.667085 150.90575,158.158085 C149.73175,159.947085 148.55775,161.624085 147.43975,163.413085 L138.88675,177.053085 L137.93575,178.395085 C137.90475,178.599085 137.90475,178.806085 137.93575,179.010085 C139.96975,183.639085 143.11975,187.692085 147.10375,190.806085 C148.03375,191.497085 149.00475,192.132085 150.01075,192.706085 L163.81975,200.924085 L165.21975,201.763085 C165.77975,201.763085 166.27975,202.098085 166.77975,202.154085 C167.63975,202.307085 168.52975,202.276085 169.36975,202.065085 C170.21975,201.853085 171.00975,201.464085 171.69975,200.924085 C174.22975,198.836085 176.05975,196.028085 176.95975,192.874085 C177.79975,190.290085 178.26975,187.598085 178.34975,184.880085 C178.48975,183.149085 178.48975,181.411085 178.34975,179.681085 Z" id="Path" fill="#2261AE" fill-rule="nonzero"></path>
                    <path d="M178.35975,179.682085 C178.61975,181.402085 178.74975,183.140085 178.74975,184.881085 C178.66975,187.599085 178.19975,190.291085 177.34975,192.875085 C176.44975,196.029085 174.61975,198.837085 172.08975,200.925085 C171.40975,201.465085 170.60975,201.854085 169.76975,202.065085 C168.91975,202.277085 168.02975,202.308085 167.16975,202.155085 C166.66975,202.155085 166.16975,201.875085 165.60975,201.764085 L172.87975,206.068085 L177.95975,209.143085 C179.26975,209.979085 180.70975,210.602085 182.20975,210.988085 C183.49975,211.378085 184.87975,211.325085 186.13975,210.839085 C187.39975,210.353085 188.44975,209.461085 189.13975,208.304085 C190.50975,205.939085 191.05975,203.188085 190.70975,200.478085 C190.40975,196.904085 189.40975,193.426085 187.74975,190.247085 C186.14975,186.807085 183.81975,183.755085 180.92975,181.303085 C179.97975,180.688085 179.13975,180.241085 178.35975,179.682085 Z" id="Path" fill="#FEBF40" fill-rule="nonzero"></path>
                    <path d="M137.93775,178.398085 L138.88775,177.056085 L147.44175,163.415085 C148.55975,161.626085 149.73375,159.949085 150.90775,158.160085 L148.55975,156.707085 C147.00275,155.755085 145.23775,155.198085 143.41675,155.086085 C141.73275,154.959085 140.06075,155.457085 138.72075,156.483085 C136.76375,158.158085 135.52275,160.519085 135.25475,163.080085 C135.10875,164.474085 135.10875,165.879085 135.25475,167.273085 C135.38775,169.491085 135.78175,171.687085 136.42875,173.813085 C136.81975,175.155085 137.37875,176.497085 137.82575,177.839085 L137.93775,178.398085 Z" id="Path" fill="#87CEF2" fill-rule="nonzero"></path>
                    <path d="M126.30975,139.988085 L128.48975,182.195085 C126.00575,182.601085 123.46075,182.429085 121.05475,181.692085 C118.99375,181.021085 117.09175,179.937085 115.46375,178.506085 L126.30975,139.988085 Z" id="Path" fill="#8BB8E0" fill-rule="nonzero"></path>
                    <path d="M198.08975,157.150085 L211.38975,202.320085 L228.16975,199.190085 C230.45975,211.824085 232.57975,225.017085 234.42975,238.770085 C236.82975,256.715085 238.50975,273.933085 239.62975,290.257085 C233.18975,294.692085 226.12975,298.123085 218.65975,300.431085 C212.18975,302.438085 205.47975,303.603085 198.69975,303.897085 C202.36975,285.802085 204.34975,267.405085 204.62975,248.944085 C204.62975,234.521085 203.95975,223.061085 202.22975,200.587085 C200.87975,182.810085 199.31975,167.772085 198.08975,157.150085 Z" id="Path" fill="#8BB8E0" fill-rule="nonzero"></path>
                    <path d="M132.45675,362.038085 L202.21975,321.564085 C202.68975,321.293085 203.06975,320.906085 203.33975,320.440085 C203.60975,319.974085 203.74975,319.446085 203.74975,318.909085 C203.74975,318.371085 203.60975,317.844085 203.33975,317.378085 C203.06975,316.912085 202.68975,316.524085 202.21975,316.253085 L100.36775,257.219085 C99.58275,256.778085 98.69675,256.547085 97.79675,256.547085 C96.89575,256.547085 96.00975,256.778085 95.22475,257.219085 L23.66775,295.625085 C23.11275,295.851085 22.63775,296.238085 22.30275,296.736085 C21.96875,297.234085 21.78975,297.820085 21.78975,298.420085 C21.78975,299.020085 21.96875,299.606085 22.30275,300.104085 C22.63775,300.602085 23.11275,300.989085 23.66775,301.215085 L127.20175,362.374085 C128.03775,362.754085 128.95475,362.922085 129.87075,362.864085 C130.78775,362.805085 131.67575,362.522085 132.45675,362.038085 Z" id="Path" fill="#8BB8E0" fill-rule="nonzero"></path>
                    <path d="M132.45675,358.964085 L202.21975,318.490085 C202.75975,318.245085 203.20975,317.851085 203.52975,317.356085 C203.84975,316.860085 204.01975,316.284085 204.01975,315.695085 C204.01975,315.106085 203.84975,314.530085 203.52975,314.034085 C203.20975,313.539085 202.75975,313.145085 202.21975,312.900085 L100.36775,253.866085 C99.58275,253.425085 98.69675,253.193085 97.79575,253.193085 C96.89575,253.193085 96.00975,253.425085 95.22475,253.866085 L23.66775,292.271085 C23.18975,292.530085 22.78975,292.914085 22.51075,293.381085 C22.23175,293.848085 22.08475,294.383085 22.08475,294.927085 C22.08475,295.471085 22.23175,296.005085 22.51075,296.472085 C22.78975,296.940085 23.18975,297.323085 23.66775,297.582085 L127.08975,358.908085 C127.89675,359.399085 128.82075,359.663085 129.76575,359.673379 C130.70975,359.683085 131.63975,359.438085 132.45675,358.964085 Z" id="Path" fill="#D5ECFE" fill-rule="nonzero"></path>
                    <path d="M122.16975,348.345085 L175.10975,316.983085 C175.45975,316.760085 175.73975,316.454085 175.93975,316.093085 C176.13975,315.731085 176.23975,315.326085 176.23975,314.914085 C176.23975,314.503085 176.13975,314.098085 175.93975,313.736085 C175.73975,313.375085 175.45975,313.069085 175.10975,312.846085 L98.63475,267.229085 C98.04475,266.901085 97.38075,266.729085 96.70575,266.729085 C96.03075,266.729085 95.36675,266.901085 94.77675,267.229085 L40.43875,296.913085 C40.09275,297.136085 39.80775,297.442085 39.61075,297.804085 C39.41375,298.165085 39.30975,298.570085 39.30975,298.982085 C39.30975,299.394085 39.41375,299.799085 39.61075,300.160085 C39.80775,300.521085 40.09275,300.827085 40.43875,301.050085 L118.20075,348.289085 C118.79875,348.646085 119.48075,348.839085 120.17775,348.849419 C120.87475,348.858085 121.56175,348.685085 122.16975,348.345085 Z" id="Path" fill="#8BB8E0" fill-rule="nonzero" opacity="0.5"></path>
                    <path d="M112.83375,262.697085 C112.83375,263.256085 112.83375,264.094085 112.83375,265.101085 C112.83375,268.399085 112.83375,270.076085 113.16875,272.144085 C113.13475,274.245085 112.92875,276.339085 112.55475,278.406085 C111.49175,287.183085 111.82775,289.586085 110.65375,289.586085 C109.47975,289.586085 107.18775,288.021085 106.40475,285.897085 C105.62175,283.772085 106.40475,282.934085 106.01375,280.027085 C105.83175,278.833085 105.49275,277.667085 105.00775,276.561085 C103.71575,278.144085 102.60975,279.870085 101.70875,281.704085 C99.38175,285.180085 97.50275,288.937085 96.11875,292.885085 C95.98575,293.486085 95.64275,294.019085 95.15075,294.389085 C94.65775,294.758085 94.04975,294.938085 93.43575,294.897085 C93.07575,294.793085 92.74275,294.614085 92.45875,294.371085 C92.17375,294.128085 91.94475,293.827085 91.78575,293.488085 C91.62775,293.150085 91.54275,292.781085 91.53775,292.407085 C91.53275,292.033085 91.60775,291.662085 91.75775,291.319085 L96.23075,276.784085 C94.77675,279.431085 93.32375,282.282085 91.86975,285.338085 C90.69575,287.853085 89.63375,290.257085 88.68375,292.605085 C88.68375,293.165085 88.46975,293.703085 88.08475,294.109085 C87.69975,294.514085 87.17375,294.757085 86.61475,294.785085 C86.07975,294.821085 85.54975,294.659085 85.12775,294.329085 C84.70475,293.999085 84.41775,293.525085 84.32275,292.997085 C84.04375,292.997085 82.70175,293.835085 81.91875,293.276085 C81.13675,292.717085 81.30475,291.599085 81.41575,290.705085 C81.53175,288.164085 81.86875,285.639085 82.42275,283.157085 C83.69075,279.163085 85.18375,275.244085 86.89475,271.418085 L79.34775,282.599085 C78.97975,282.997085 78.49875,283.274085 77.96975,283.394085 C77.44175,283.513085 76.88875,283.470085 76.38475,283.269085 C75.88475,282.689085 75.63275,281.935085 75.68475,281.171085 C75.73775,280.407085 76.08975,279.695085 76.66375,279.188085 L83.20475,268.567085 C85.07775,265.885085 87.25375,263.427085 89.68975,261.243085 C92.03275,259.132085 94.57875,257.259085 97.29275,255.653085 C97.71275,254.591085 98.34375,253.625085 99.14775,252.814085 C99.95175,252.003085 100.91175,251.363085 101.96975,250.934085 C103.02775,250.504085 104.16275,250.294085 105.30475,250.316085 C106.44675,250.338085 107.57175,250.591085 108.61275,251.061085 C109.65375,251.530085 110.58875,252.206085 111.36175,253.047085 C112.13375,253.889085 112.72775,254.878085 113.10675,255.955085 C113.48575,257.033085 113.64175,258.176085 113.56575,259.315085 C113.49075,260.455085 113.18375,261.567085 112.66575,262.585085 L112.83375,262.697085 Z" id="Path" fill="#FFEFD9" fill-rule="nonzero"></path>
                    <path d="M105.73475,272.871085 C106.23775,274.581085 106.64775,276.316085 106.96475,278.070085 C108.08275,284.387085 107.35575,287.797085 109.64875,289.530085 L109.98375,289.530085 C109.13175,289.259085 108.35675,288.788085 107.72475,288.156085 C107.09275,287.524085 106.62075,286.749085 106.34975,285.897085 C105.73475,284.052085 106.34975,282.934085 105.95875,280.027085 C105.77675,278.832085 105.43775,277.667085 104.95275,276.561085 C104.30875,277.365085 103.71175,278.204085 103.16375,279.076085 L105.73475,272.871085 Z" id="Path" fill="#F9D6A7" fill-rule="nonzero"></path>
                    <path d="M86.61675,295.010085 C89.47675,287.458085 93.01275,280.180085 97.18275,273.264085 L95.44975,278.575085 C94.21975,280.811085 93.04575,283.047085 91.87175,285.563085 C90.69775,288.078085 89.63575,290.482085 88.68475,292.830085 C88.68575,293.389085 88.47175,293.928085 88.08675,294.333085 C87.70175,294.739085 87.17575,294.982085 86.61675,295.010085 Z" id="Path" fill="#F9D6A7" fill-rule="nonzero"></path>
                    <path d="M85.77675,286.344085 C86.72675,283.381085 90.91975,275.610085 90.91975,275.163085 C90.91975,274.716085 87.95675,283.548085 87.62175,284.666085 L84.54675,293.276085 L84.26675,293.276085 C84.60375,290.932085 85.10775,288.615085 85.77675,286.344085 Z" id="Path" fill="#F9D6A7" fill-rule="nonzero"></path>
                    <path d="M87.62175,269.963085 L85.83275,273.373085 L79.51575,282.597085 C79.24775,282.768085 78.96775,282.917085 78.67675,283.044085 L87.62175,269.963085 Z" id="Path" fill="#F9D6A7" fill-rule="nonzero"></path>
                    <path d="M21.20875,300.824085 L125.74775,361.032085 C126.14975,361.270085 126.61275,361.383085 127.07875,361.357085 C127.54475,361.331085 127.99275,361.166085 128.36475,360.884085 C128.73675,360.602085 129.01675,360.215085 129.16775,359.774085 C129.31875,359.332085 129.33475,358.856085 129.21375,358.405085 L110.20675,286.848085 C109.92975,285.867085 109.28975,285.028085 108.41775,284.500085 L3.65475,224.348085 C3.24975,224.120085 2.78675,224.018085 2.32275,224.054085 C1.85975,224.090085 1.41775,224.262085 1.05275,224.550085 C0.68775,224.837085 0.41575,225.226085 0.27175,225.668085 C0.12875,226.110085 0.11875,226.584085 0.24475,227.031085 L19.53175,298.532085 C19.64575,299.006085 19.85275,299.452085 20.14075,299.846085 C20.42875,300.239085 20.79175,300.572085 21.20875,300.824085 Z" id="Path" fill="#8BB8E0" fill-rule="nonzero"></path>
                    <path d="M0.02175,226.638085 C0.31775,226.587085 0.62075,226.587085 0.91675,226.638085 L105.67975,286.790085 C106.55175,287.318085 107.19075,288.157085 107.46875,289.138085 L126.47575,360.695085 C126.47575,360.695085 126.47575,360.695085 126.47575,361.030085 C126.16075,361.081085 125.83975,361.081085 125.52575,361.030085 L21.20875,300.822085 C20.77175,300.581085 20.38675,300.254085 20.07975,299.860085 C19.77175,299.466085 19.54775,299.013085 19.42075,298.530085 L0.02175,227.029085 C-0.00725,226.900085 -0.00725,226.767085 0.02175,226.638085 Z" id="Path" fill="#D5ECFE" fill-rule="nonzero"></path>
                    <path d="M57.32175,279.469085 L64.58875,283.885085 C65.61575,284.524085 66.47175,285.402085 67.08475,286.444085 C67.69775,287.485085 68.04975,288.660085 68.11075,289.867085 L68.39075,296.575085 C68.46275,297.881085 68.18475,299.182085 67.58475,300.343085 C66.98375,301.505085 66.08375,302.484085 64.97675,303.180085 C63.87075,303.876085 62.59775,304.263085 61.29075,304.301085 C59.98375,304.339085 58.69075,304.026085 57.54575,303.396085 L50.61375,299.650085 C49.53375,299.069085 48.61475,298.228085 47.94175,297.203085 C47.26775,296.179085 46.86075,295.002085 46.75575,293.780085 L46.14075,286.401085 C46.02575,285.044085 46.28875,283.681085 46.90075,282.465085 C47.51175,281.248085 48.44775,280.224085 49.60575,279.506085 C50.76275,278.788085 52.09675,278.405085 53.45875,278.398987 C54.82075,278.392085 56.15775,278.762085 57.32175,279.469085 Z" id="Path" fill="#FFFFFF" fill-rule="nonzero"></path>
                    <path d="M97.45975,255.766085 C101.51975,243.733085 106.33675,231.970085 111.88275,220.546085 C114.00675,216.130085 116.18675,211.937085 118.42375,207.856085 C120.92675,203.040085 124.19275,198.660085 128.09475,194.887085 C127.64775,208.527085 127.14475,222.391085 126.36175,236.535085 C126.36175,237.877085 126.36175,239.162085 126.08175,240.504085 L112.83275,262.865085 C112.47775,264.016085 111.88175,265.079085 111.08375,265.982085 C110.28675,266.885085 109.30675,267.608085 108.20875,268.103085 C107.11075,268.599085 105.91975,268.855085 104.71475,268.855085 C103.50975,268.855085 102.31975,268.599085 101.22075,268.104085 C100.12275,267.609085 99.14275,266.886085 98.34475,265.983085 C97.54775,265.080085 96.95175,264.018085 96.59575,262.867085 C96.23975,261.716085 96.13275,260.503085 96.28175,259.307085 C96.43075,258.112085 96.83275,256.962085 97.45975,255.933085 L97.45975,255.766085 Z" id="Path" fill="#FFEFD9" fill-rule="nonzero"></path>
                    <path d="M253.93975,189.467085 C254.95975,200.020085 255.14975,210.637085 254.49975,221.220085 C254.15975,227.425085 253.54975,233.295085 252.81975,238.718085 C252.47975,241.470085 251.39975,244.078085 249.67975,246.256085 C247.96975,248.434085 245.68975,250.101085 243.08975,251.073085 C239.44975,252.306085 235.47975,252.186085 231.90975,250.737085 C228.67975,249.374085 225.97975,247.005085 224.20975,243.983085 C222.43975,240.962085 221.68975,237.448085 222.06975,233.966085 L216.47975,201.039085 C222.25975,200.085085 227.96975,198.778085 233.58975,197.126085 C240.54975,195.071085 247.34975,192.511085 253.93975,189.467085 Z" id="Path" fill="#FFEFD9" fill-rule="nonzero"></path>
                    <path d="M216.58975,200.980085 C218.09975,200.980085 219.71975,200.365085 221.33975,200.086085 L227.26975,234.746085 C226.94975,237.970085 227.47975,241.221085 228.82975,244.168085 C230.17975,247.115085 232.27975,249.651085 234.92975,251.517085 C233.93975,251.296085 232.96975,250.997085 232.01975,250.623085 C228.78975,249.260085 226.08975,246.891085 224.31975,243.869085 C222.54975,240.847085 221.79975,237.334085 222.17975,233.852085 L216.58975,200.980085 Z" id="Path" fill="#F9D6A7" fill-rule="nonzero"></path>
                    <path d="M222.17975,233.907085 C216.14975,237.205085 209.99975,240.727085 203.72975,244.584085 C189.84975,253.134085 176.46975,262.466085 163.64975,272.536085 C161.53975,273.183085 159.72575,274.538085 158.50375,276.372085 C157.28075,278.205085 156.72975,280.405085 156.94275,282.599085 C157.43575,283.872085 158.19075,285.027085 159.15675,285.991085 C160.11975,286.955085 161.27975,287.706085 162.55975,288.195085 C163.82975,288.685085 165.18975,288.903085 166.55975,288.834085 C167.91975,288.766085 169.24975,288.413085 170.46975,287.798085 C179.63975,285.282085 187.23975,282.599085 192.32975,280.586085 C208.27975,274.829085 223.32975,266.849085 237.04975,256.883085 C241.07975,253.864085 244.48975,251.293085 247.27975,248.609085 C249.19975,246.961085 250.52975,244.734085 251.07975,242.264085 C251.61975,239.795085 251.34975,237.215085 250.29975,234.913085 C248.69975,231.570085 245.99975,228.884085 242.63975,227.310085 C238.99975,225.839085 234.95975,225.693085 231.21975,226.899085 C227.47975,228.104085 224.27975,230.585085 222.17975,233.907085 Z" id="Path" fill="#FFEFD9" fill-rule="nonzero"></path>
                    <path d="M163.64975,272.590085 C160.51975,273.038085 157.27775,273.597085 153.97975,274.156085 L144.14075,276.056085 C142.26975,276.086085 140.40175,276.236085 138.54975,276.504085 C134.58075,277.175085 134.24575,277.901085 134.18975,278.125085 C134.13375,278.349085 135.02775,280.641085 136.81675,281.870085 L127.08975,292.324085 C125.69275,293.554085 125.24475,295.176085 125.85975,296.126085 C126.10275,296.523085 126.47975,296.820085 126.92175,296.964085 C124.35075,298.642085 123.28875,301.045085 123.90375,302.555085 C124.17275,303.117085 124.62675,303.571085 125.18875,303.841085 C124.88175,304.230085 124.68375,304.694085 124.61475,305.185085 C124.54575,305.676085 124.60875,306.177085 124.79775,306.636085 C125.46875,307.530085 127.59275,307.754085 129.49375,306.189085 L140.67475,297.356085 L135.08375,302.946085 C134.81275,303.351085 134.66775,303.828085 134.66775,304.316085 C134.66775,304.803085 134.81275,305.280085 135.08375,305.685085 C135.32975,305.942085 135.62475,306.147085 135.95075,306.287085 C136.27775,306.427085 136.62975,306.499085 136.98475,306.499085 C137.33975,306.499085 137.69175,306.427085 138.01875,306.287085 C138.34575,306.147085 138.63975,305.942085 138.88575,305.685085 C140.84175,304.288085 142.85475,302.834085 144.86675,301.269085 C146.87975,299.704085 148.83675,298.138085 150.45775,296.629085 L157.55775,294.393085 C160.01975,293.814085 162.43975,293.028085 164.76975,292.045085 C166.83975,291.021085 168.72975,289.661085 170.35975,288.020085 C172.12975,286.571085 173.29975,284.516085 173.63975,282.254085 C173.97975,279.991085 173.46975,277.683085 172.19975,275.777085 C171.19975,274.517085 169.87975,273.555085 168.36975,272.993085 C166.85975,272.432085 165.22975,272.292085 163.64975,272.590085 Z" id="Path" fill="#FFEFD9" fill-rule="nonzero"></path>
                    <path d="M139.66875,285.172085 L126.75475,296.968085 C126.75475,296.968085 126.08375,297.303085 125.69275,296.129085 L139.66875,285.172085 Z" id="Path" fill="#F9D6A7" fill-rule="nonzero"></path>
                    <path d="M136.64975,281.872085 C138.79075,279.573085 141.32775,277.679085 144.14075,276.281063 C144.14075,276.281063 127.42575,276.225085 136.64975,281.872085 Z" id="Path" fill="#F9D6A7" fill-rule="nonzero"></path>
                    <path d="M141.90375,288.412085 L125.13275,303.841085 C125.13275,303.841085 123.90275,303.841085 123.84675,302.555085 C123.73575,302.555085 143.35775,285.840085 141.90375,288.412085 Z" id="Path" fill="#F9D6A7" fill-rule="nonzero"></path>
                    <path d="M147.21575,292.046085 C145.09175,293.835085 142.91175,295.568085 140.67475,297.636085 C136.53875,300.934085 132.51375,304.065085 128.48875,307.028085 C128.11875,307.217085 127.72375,307.349085 127.31475,307.419085 C126.74175,307.523085 126.15475,307.523085 125.58175,307.419085 C129.27075,304.848085 133.07275,301.829085 136.76175,299.146085 C140.45175,296.462085 143.47075,293.947085 146.60075,291.375085 L147.21575,292.046085 Z" id="Path" fill="#F9D6A7" fill-rule="nonzero"></path>
                </g>
            </g>
        </g>
    </g>
</svg>