<svg width="170" height="38" viewBox="0 0 170 38" fill="none" xmlns="http://www.w3.org/2000/svg">
<path fill-rule="evenodd" clip-rule="evenodd" d="M100.28 15.2615C101.963 15.2615 103.242 15.7999 104.119 16.8804V15.4303H107.314V24.8555C107.314 26.9305 106.759 28.4753 105.651 29.4866C104.543 30.4946 102.926 31 100.798 31C99.6768 31 98.6113 30.8669 97.6062 30.6001C96.5983 30.3334 95.7635 29.9471 95.1034 29.4422C95.2371 29.2085 96.3076 27.3228 96.4419 27.0863C96.9283 27.4808 97.5463 27.7919 98.2951 28.0224C99.0445 28.2556 99.7905 28.3693 100.539 28.3693C101.704 28.3693 102.564 28.1144 103.116 27.6031C103.672 27.0891 103.948 26.3137 103.948 25.2748V24.7916C103.071 25.7336 101.846 26.2028 100.28 26.2028C99.2153 26.2028 98.2413 25.975 97.356 25.5199C96.4729 25.0611 95.7724 24.4193 95.2543 23.5915C94.7356 22.7669 94.4766 21.8113 94.4766 20.7308C94.4766 19.6502 94.7356 18.6969 95.2543 17.8695C95.7724 17.0417 96.4729 16.4 97.356 15.9444C98.2413 15.4888 99.2153 15.2615 100.28 15.2615ZM78.8599 15.2584C79.9393 15.2584 80.9217 15.5002 81.8075 15.9861C82.69 16.4693 83.385 17.15 83.8859 18.0249C84.3901 18.9031 84.6436 19.9225 84.6436 21.0891C84.6436 22.2524 84.3901 23.2724 83.8859 24.15C83.385 25.0276 82.69 25.7056 81.8075 26.192C80.9217 26.6752 79.9393 26.9171 78.8599 26.9171C77.3794 26.9171 76.2145 26.4615 75.3659 25.5471V30.8307H72V15.425H75.215V16.7307C76.0492 15.7502 77.2651 15.2584 78.8599 15.2584ZM150.807 15.2583C151.914 15.2583 152.92 15.4861 153.825 15.9417C154.734 16.4 155.454 17.0585 155.995 17.9226C156.533 18.7829 156.804 19.8056 156.804 20.9835C155.944 21.1448 149.075 22.4417 148.218 22.603C148.463 23.1641 148.847 23.5861 149.372 23.867C149.895 24.1472 150.539 24.2863 151.303 24.2863C151.906 24.2863 152.441 24.2003 152.911 24.025C153.378 23.8475 153.811 23.5726 154.215 23.1917C154.395 23.3832 155.827 24.8972 156.006 25.0866C154.913 26.3056 153.315 26.917 151.217 26.917C149.907 26.917 148.748 26.6698 147.743 26.1725C146.735 25.6725 145.96 24.9805 145.413 24.0975C144.866 23.2139 144.593 22.2112 144.593 21.089C144.593 19.9804 144.864 18.981 145.402 18.0887C145.94 17.2003 146.68 16.5028 147.623 16.0056C148.566 15.5083 149.627 15.2583 150.807 15.2583ZM142.446 11.1337V26.7504H139.231V25.4448C138.397 26.428 137.186 26.9171 135.606 26.9171C134.512 26.9171 133.524 26.6779 132.638 26.2029C131.756 25.7251 131.061 25.0449 130.557 24.1614C130.053 23.2778 129.802 22.2524 129.802 21.0891C129.802 19.9252 130.056 18.8999 130.557 18.0168C131.061 17.1332 131.756 16.4531 132.638 15.9753C133.524 15.497 134.512 15.2584 135.606 15.2584C137.086 15.2584 138.246 15.7167 139.08 16.6279V11.1337H142.446ZM126.342 22.8335C126.932 22.8335 127.427 23.0223 127.831 23.3919C128.233 23.7636 128.435 24.2533 128.435 24.8555C128.435 25.4448 128.233 25.9361 127.831 26.3283C127.427 26.7223 126.932 26.917 126.342 26.917C125.753 26.917 125.254 26.7223 124.853 26.3283C124.452 25.9361 124.249 25.4448 124.249 24.8555C124.249 24.2533 124.452 23.7636 124.853 23.3919C125.254 23.0223 125.753 22.8335 126.342 22.8335ZM90.2507 11.1332V22.8136C90.2507 23.2919 90.3788 23.6587 90.6295 23.9195C90.8803 24.1782 91.2358 24.3086 91.6973 24.3086C91.8709 24.3086 92.0445 24.2864 92.227 24.2447C92.4062 24.2031 92.546 24.1528 92.6453 24.097C92.6625 24.353 92.7823 26.3891 92.7967 26.6444C92.2354 26.8252 91.6546 26.9166 91.0511 26.9166C89.7409 26.9166 88.7186 26.5779 87.9864 25.8977C87.252 25.2171 86.8876 24.2534 86.8876 23.003V11.1332H90.2507ZM122.093 11V26.6167H118.878V25.3111C118.044 26.2943 116.837 26.7834 115.253 26.7834C114.163 26.7834 113.172 26.5475 112.289 26.0697C111.403 25.5914 110.712 24.9112 110.207 24.0282C109.703 23.1446 109.452 22.1193 109.452 20.9554C109.452 19.7921 109.703 18.7667 110.207 17.8831C110.712 16.9995 111.403 16.3194 112.289 15.8416C113.172 15.3638 114.163 15.1274 115.253 15.1274C116.737 15.1274 117.893 15.583 118.727 16.4947V11H122.093ZM160.491 15.381L163.567 23.9112L166.642 15.381H170L165.384 26.7421H161.685L157.069 15.381H160.491ZM136.187 17.953C135.324 17.953 134.612 18.2365 134.051 18.8057C133.49 19.3722 133.211 20.133 133.211 21.0891C133.211 22.0419 133.49 22.8027 134.051 23.3725C134.615 23.939 135.324 24.2225 136.187 24.2225C137.038 24.2225 137.741 23.939 138.302 23.3725C138.864 22.8027 139.143 22.0419 139.143 21.0891C139.143 20.133 138.864 19.3722 138.302 18.8057C137.741 18.2365 137.035 17.953 136.187 17.953ZM78.2791 17.953C77.416 17.953 76.7071 18.2365 76.1546 18.8057C75.5994 19.3722 75.3232 20.133 75.3232 21.0891C75.3232 22.0419 75.5994 22.8027 76.1546 23.3725C76.7071 23.939 77.416 24.2225 78.2791 24.2225C79.1422 24.2225 79.8511 23.939 80.403 23.3725C80.956 22.8027 81.2351 22.0419 81.2351 21.0891C81.2351 20.133 80.956 19.3722 80.403 18.8057C79.8511 18.2365 79.1422 17.953 78.2791 17.953ZM115.837 17.8193C114.974 17.8193 114.263 18.1028 113.701 18.672C113.141 19.2391 112.858 19.9998 112.858 20.9554C112.858 21.9088 113.141 22.6695 113.701 23.2393C114.263 23.8058 114.974 24.0888 115.837 24.0888C116.686 24.092 117.392 23.8058 117.95 23.2393C118.511 22.6695 118.793 21.9088 118.793 20.9554C118.793 19.9998 118.511 19.2391 117.95 18.672C117.389 18.1028 116.686 17.8193 115.837 17.8193ZM100.949 17.9529C100.058 17.9529 99.3235 18.2083 98.7483 18.7223C98.1758 19.2331 97.8885 19.9029 97.8885 20.7308C97.8885 21.5581 98.1758 22.228 98.7483 22.742C99.3235 23.2528 100.058 23.5087 100.949 23.5087C101.841 23.5087 102.57 23.2528 103.139 22.742C103.709 22.228 103.991 21.5581 103.991 20.7308C103.991 19.9029 103.709 19.2331 103.139 18.7223C102.57 18.2083 101.841 17.9529 100.949 17.9529ZM150.807 17.7419C149.958 17.7419 149.266 18.0086 148.737 18.5416C148.204 19.0746 147.922 19.8115 147.893 20.753C148.457 20.6448 152.979 19.7861 153.546 19.6779C153.386 19.0892 153.065 18.6195 152.575 18.2695C152.085 17.9167 151.496 17.7419 150.807 17.7419Z" fill="#191A1A"/>
<path fill-rule="evenodd" clip-rule="evenodd" d="M52.7698 32.5411C54.5804 30.2047 55.659 27.2836 55.659 24.1124C55.659 16.4491 49.3739 10.2361 41.6218 10.2361C40.9914 10.2361 40.3723 10.2811 39.7644 10.3612C39.2634 9.5696 38.8664 8.9776 38.6235 8.67242C35.8811 5.21933 31.6204 3.00195 26.8339 3.00195C19.7436 3.00195 13.8055 7.8753 12.2535 14.4179C12.2535 14.409 12.2451 14.3985 12.2473 14.3901C12.136 14.3868 12.0258 14.3801 11.9139 14.3801C5.33473 14.3801 0 19.6537 0 26.158C0 32.6612 5.33473 37.9347 11.9139 37.9347C16.296 37.9347 22.2437 37.9859 26.3632 37.9859C28.82 37.9859 30.151 37.9575 40.2925 37.9859C40.3762 37.9864 40.4555 37.9836 40.5382 37.9836C41.8557 38.0442 44.6881 37.9959 47.3805 36.7707C47.8124 36.5695 50.4356 35.485 52.7709 32.5428L52.7698 32.5411Z" fill="#FEBF40"/>
<path fill-rule="evenodd" clip-rule="evenodd" d="M57.1109 29.5391C58.9216 27.2028 60.0001 24.2817 60.0001 21.1104C60.0001 13.4471 53.7151 7.23414 45.963 7.23414C45.3326 7.23414 44.7135 7.27917 44.1056 7.35921C43.6046 6.56765 43.2082 5.97564 42.9647 5.67047C40.2222 2.21738 35.9615 0 31.1751 0C22.9039 0 16.1954 6.62935 16.1954 14.8079C16.1954 22.987 22.431 34.9839 30.7044 34.9839C33.1612 34.9839 34.4922 34.9556 44.6336 34.9839C44.7174 34.9845 44.7967 34.9817 44.8794 34.9817C46.1969 35.0423 49.0293 34.9939 51.7217 33.7688C52.1535 33.5675 54.7768 32.483 57.1121 29.5408L57.1109 29.5391Z" fill="#87CEF2"/>
<path fill-rule="evenodd" clip-rule="evenodd" d="M52.2409 31.7617C49.963 27.7433 40.385 10.8865 38.6238 8.67186C35.8814 5.21878 31.6201 3.00195 26.8336 3.00195C18.563 3.00195 11.854 9.63075 11.854 17.8093C11.854 25.9884 18.0896 37.9853 26.363 37.9853C28.8203 37.9853 30.1508 37.9575 40.2922 37.9853C40.376 37.9859 40.4553 37.9831 40.5379 37.9831C41.8554 38.0442 44.6884 37.9959 47.3802 36.7707C47.8127 36.5689 50.4359 35.4844 52.7706 32.5422L52.2409 31.7617Z" fill="#2261AE"/>
</svg>
