<svg width="24" height="24" viewBox="0 0 24 20" fill="none" xmlns="http://www.w3.org/2000/svg">
<path d="M2.26943 0.894533C1.83606 0.546766 1.20684 0.627346 0.86514 1.06842C0.523443 1.50949 0.602617 2.14989 1.03599 2.49766L21.533 18.9063C21.9664 19.254 22.5956 19.1735 22.9373 18.7324C23.279 18.2913 23.1998 17.6509 22.7665 17.3032L20.5674 15.4435C22.2176 13.7216 23.3343 11.7919 23.8969 10.422C24.0344 10.087 24.0344 9.71378 23.8969 9.37874C23.276 7.86467 21.9717 5.65932 20.0215 3.81869C18.063 1.96111 15.367 0.400391 12 0.400391C9.15809 0.400391 6.79122 1.51579 4.94522 2.97896L2.26943 0.894533ZM7.96215 5.38365C9.02474 4.39548 10.4457 3.79325 12 3.79325C15.3128 3.79325 17.8279 6.52877 17.8279 9.90042C17.8279 10.9564 17.5653 11.9489 17.1028 12.814L15.667 11.5332C15.8837 11.0328 16.0003 10.4814 16.0003 9.90039C16.0003 7.65262 14.2085 5.82896 12 5.82896C11.8833 5.82896 11.7666 5.8332 11.65 5.84593C11.8708 6.24035 12 6.69838 12 7.1861C12 7.61869 11.9 8.02584 11.725 8.38633L7.96215 5.38365ZM17.2588 18.122L14.2085 15.5792C13.5251 15.8549 12.7792 16.0075 12 16.0075C8.68721 16.0075 5.99948 13.272 5.99948 9.90039C5.99948 9.60775 6.02031 9.3236 6.05782 9.04369L2.12831 5.89258C1.17823 7.15218 0.499002 8.40753 0.103134 9.37874C-0.034378 9.71378 -0.034378 10.087 0.103134 10.422C0.724021 11.9361 2.0283 14.2414 3.97847 16.0821C5.93697 17.9397 8.63304 19.5004 12 19.5004C13.9918 19.5004 15.7462 18.9533 17.2588 18.122Z" fill="currentcolor"/>
</svg>
