<svg width="16" height="16" viewBox="0 0 16 16" fill="none" xmlns="http://www.w3.org/2000/svg">
<path opacity="0.12" d="M8.00016 14.6673C11.6825 14.6673 14.6668 11.6829 14.6668 8.00065C14.6668 4.31836 11.6825 1.33398 8.00016 1.33398C4.31787 1.33398 1.3335 4.31836 1.3335 8.00065C1.3335 11.6829 4.31787 14.6673 8.00016 14.6673Z" fill="#2261AE"/>
<path d="M10.9429 6.77604L7.60954 10.1094C7.36475 10.3542 6.96891 10.3542 6.72673 10.1094L5.06006 8.44271C4.81527 8.19792 4.81527 7.80208 5.06006 7.5599C5.30485 7.31771 5.70068 7.3151 5.94287 7.5599L7.16683 8.78385L10.0575 5.89062C10.3022 5.64583 10.6981 5.64583 10.9403 5.89062C11.1825 6.13542 11.1851 6.53125 10.9403 6.77344L10.9429 6.77604Z" fill="#2261AE"/>
</svg>
